<svg width="189" height="58" viewBox="0 0 189 58" fill="none" xmlns="http://www.w3.org/2000/svg">
<path d="M45.0031 37.9657C45.0031 38.6354 44.955 39.3014 44.8588 39.9563C47.6708 36.0232 49.2951 31.2909 49.4653 26.4476C49.4653 26.4106 49.4542 26.3736 49.4283 26.3477C49.4024 26.3218 49.3691 26.307 49.3321 26.307H38.7908C38.7723 26.307 38.7575 26.3107 38.7427 26.3181C42.513 28.823 45.0031 33.1076 45.0031 37.9657Z" fill="black"/>
<path d="M35.7901 24.8233H37.0333C37.0703 24.8233 37.1036 24.8085 37.1295 24.7826C37.1554 24.7567 37.1702 24.7234 37.1702 24.6864C37.1258 20.7052 36.5412 16.7462 35.4349 12.9204C35.4164 12.8501 35.3424 12.8094 35.2721 12.8242C32.1086 13.5457 28.86 13.9342 25.6151 13.9749C25.5411 13.9749 25.4819 14.0378 25.4819 14.1118V24.6864C25.4819 24.7604 25.5411 24.8233 25.6188 24.8233H26.2552C27.7426 24.2831 29.3521 23.9834 31.0245 23.9834C32.6969 23.9834 34.299 24.2794 35.7901 24.8233Z" fill="black"/>
<path d="M25.6112 12.4875C25.6149 12.4875 25.6149 12.4875 25.6112 12.4875C28.6933 12.4431 31.7754 12.0805 34.7761 11.4071C34.8131 11.3997 34.8464 11.3738 34.8649 11.3405C34.8834 11.3072 34.8871 11.2665 34.8723 11.2295C32.7115 5.18 29.3408 1.4097 25.6334 0.880599C25.5964 0.876899 25.5557 0.887999 25.5261 0.913899C25.4965 0.939799 25.478 0.976799 25.478 1.0175V12.3506C25.478 12.3876 25.4928 12.4209 25.5187 12.4468C25.5409 12.4727 25.5779 12.4875 25.6112 12.4875Z" fill="black"/>
<path d="M36.8963 12.4542C36.8777 12.4875 36.8741 12.5245 36.8851 12.5578C38.021 16.502 38.6168 20.5831 38.6538 24.6864C38.6538 24.7604 38.7167 24.8196 38.7907 24.8196H49.332C49.3689 24.8196 49.406 24.8048 49.4282 24.7789C49.4541 24.753 49.4689 24.716 49.4651 24.679C49.2727 19.2511 47.2563 13.9601 43.7894 9.7791C43.7487 9.7273 43.6747 9.7162 43.6192 9.7458C41.5176 10.8817 39.2827 11.7734 36.9777 12.3876C36.9444 12.3987 36.9148 12.4209 36.8963 12.4542Z" fill="black"/>
<path d="M36.3376 10.8928C36.3561 10.952 36.4079 10.989 36.4671 10.989C36.4782 10.989 36.4893 10.989 36.5004 10.9853C38.5983 10.434 40.6333 9.6496 42.561 8.6543C42.598 8.6358 42.6276 8.5988 42.635 8.5544C42.6424 8.51 42.6276 8.4693 42.598 8.436L42.524 8.3546C42.4241 8.251 42.3168 8.1474 42.2132 8.0475L42.0208 7.8588C41.8802 7.7219 41.7433 7.5813 41.599 7.4481C41.5102 7.3667 41.4214 7.2853 41.3289 7.2039C41.2697 7.1521 41.2105 7.1003 41.1513 7.0448L41.1143 7.0115C40.9552 6.8709 40.7961 6.7266 40.6333 6.5934C40.4964 6.4787 40.3595 6.3677 40.2189 6.2567L40.1671 6.216C39.9895 6.0717 39.8082 5.9311 39.6269 5.7942C39.4678 5.6721 39.305 5.5574 39.1422 5.4427C38.9572 5.3095 38.7722 5.1763 38.5835 5.0505C38.417 4.9395 38.2505 4.8285 38.084 4.7249C37.8916 4.6028 37.7029 4.4807 37.5068 4.366C37.3366 4.2624 37.1627 4.1625 36.9925 4.0663C36.7964 3.9516 36.5966 3.8443 36.3931 3.7333C36.3043 3.6889 36.2192 3.6445 36.1304 3.6001C36.0416 3.552 35.9528 3.5076 35.864 3.4632C35.6605 3.3596 35.4533 3.2597 35.2461 3.1635C35.0685 3.0784 34.8872 2.997 34.7059 2.9156C34.5653 2.8527 34.4284 2.7972 34.2878 2.738L34.0732 2.6492C33.8919 2.5752 33.7106 2.5012 33.5256 2.4309C33.311 2.3495 33.0927 2.2718 32.8744 2.1978C32.6894 2.1349 32.5081 2.0683 32.3194 2.0091C32.0974 1.9388 31.8754 1.8722 31.6497 1.8056L31.6238 1.7982C31.4499 1.7464 31.2723 1.6946 31.0984 1.6502C31.0577 1.6391 31.017 1.628 30.9726 1.6206L30.8801 1.5984C30.8209 1.5836 30.758 1.6095 30.7284 1.665C30.6988 1.7168 30.7099 1.7834 30.7543 1.8278C33.3295 4.329 35.2609 7.4629 36.3376 10.8928Z" fill="black"/>
<path d="M0.1369 24.8233H10.6782C10.7522 24.8233 10.8151 24.7641 10.8151 24.6901C10.8558 20.5868 11.4515 16.5057 12.5837 12.5615C12.5948 12.5245 12.5911 12.4875 12.5726 12.4579C12.5541 12.4246 12.5245 12.4024 12.4875 12.395C10.1787 11.7808 7.9439 10.8891 5.846 9.7532C5.7905 9.7236 5.7165 9.7347 5.6758 9.7865C2.2089 13.9601 0.1924 19.2511 0 24.679C0 24.716 0.0111 24.753 0.037 24.7789C0.0629 24.8085 0.0999 24.8233 0.1369 24.8233Z" fill="black"/>
<path d="M17.0975 39.2533C16.2909 39.3865 15.488 39.5419 14.6888 39.7232C14.6518 39.7306 14.6185 39.7565 14.6 39.7898C14.5815 39.8231 14.5778 39.8638 14.5926 39.9008C16.7571 45.9503 20.1278 49.7206 23.8352 50.2497C23.8426 50.2497 23.8463 50.2497 23.8537 50.2497C23.887 50.2497 23.9166 50.2386 23.9425 50.2164C23.9721 50.1905 23.9906 50.1535 23.9906 50.1128V50.0462C20.187 47.8225 17.5193 43.8598 17.0975 39.2533Z" fill="black"/>
<path d="M23.31 26.307H12.4357C12.3987 26.307 12.3654 26.3218 12.3395 26.3477C12.3136 26.3736 12.2988 26.4069 12.2988 26.4439C12.3432 30.4251 12.9278 34.3878 14.0341 38.2099C14.0526 38.2691 14.1044 38.3098 14.1636 38.3098C14.1747 38.3098 14.1821 38.3098 14.1932 38.3061C15.133 38.0915 16.0839 37.9102 17.0385 37.7548C17.1125 32.9818 19.5878 28.7786 23.31 26.307Z" fill="black"/>
<path d="M14.6 11.3405C14.6185 11.3738 14.6518 11.3997 14.6888 11.4071C17.6895 12.0805 20.7716 12.4431 23.8537 12.4875C23.8537 12.4875 23.8537 12.4875 23.8574 12.4875C23.8944 12.4875 23.9277 12.4727 23.9536 12.4468C23.9795 12.4209 23.9943 12.3876 23.9943 12.3506V1.0175C23.9943 0.976799 23.9758 0.939799 23.9462 0.913899C23.9166 0.887999 23.8759 0.876899 23.8389 0.880599C20.1241 1.4097 16.7571 5.18 14.5926 11.2295C14.5778 11.2665 14.5815 11.3072 14.6 11.3405Z" fill="black"/>
<path d="M14.1969 12.8205C14.1266 12.802 14.0563 12.8464 14.0341 12.9167C12.9278 16.7425 12.3432 20.7015 12.2988 24.6827C12.2988 24.7197 12.3136 24.753 12.3395 24.7789C12.3654 24.8048 12.3987 24.8196 12.4357 24.8196H23.8539C23.9279 24.8196 23.9908 24.7604 23.9908 24.6827V14.1081C23.9908 14.0341 23.9316 13.9712 23.8576 13.9712C20.6127 13.9305 17.3604 13.542 14.1969 12.8205Z" fill="black"/>
<path d="M6.90784 8.6506C8.83184 9.6459 10.8668 10.4266 12.961 10.9816C12.9721 10.9853 12.9832 10.9853 12.9943 10.9853C13.0535 10.9853 13.1053 10.9483 13.1238 10.8891C14.2005 7.4629 16.1282 4.329 18.7034 1.8278C18.7478 1.7834 18.7589 1.7168 18.7256 1.665C18.696 1.6095 18.6331 1.5836 18.5739 1.5984L18.474 1.6243C18.437 1.6317 18.3963 1.6428 18.3593 1.6539C18.215 1.6909 18.0707 1.7353 17.9301 1.776L17.8043 1.813C17.5823 1.8759 17.364 1.9425 17.1383 2.0128C16.9533 2.072 16.772 2.1349 16.5796 2.2015L16.5241 2.22C16.328 2.2903 16.1319 2.3569 15.9358 2.4309C15.7508 2.5012 15.5695 2.5752 15.3845 2.6492L14.7592 2.9119C14.5779 2.9933 14.3966 3.0747 14.2153 3.1598C14.0118 3.256 13.8083 3.3522 13.6048 3.4558C13.4272 3.5446 13.2496 3.6371 13.0757 3.7333C12.8759 3.8406 12.6798 3.9479 12.4874 4.0589C12.3098 4.1588 12.1359 4.2587 11.9657 4.3623C11.7918 4.4659 11.6216 4.5732 11.4514 4.6805L11.3959 4.7175C11.2257 4.8248 11.0555 4.9358 10.889 5.0468C10.704 5.1726 10.519 5.3021 10.334 5.4353C10.1712 5.5537 10.0084 5.6684 9.84564 5.7905C9.73464 5.8719 9.62734 5.957 9.52004 6.0421C9.44974 6.0976 9.38314 6.1531 9.30914 6.2086L9.23514 6.2678C9.10194 6.3751 8.96874 6.4787 8.84294 6.586C8.69124 6.7118 8.54324 6.8413 8.39894 6.9708L8.19914 7.1484C8.09184 7.2446 7.98084 7.3408 7.87724 7.4407C7.73294 7.5776 7.58864 7.7145 7.44804 7.8551L7.24824 8.0512C7.14834 8.1474 7.04844 8.2436 6.95224 8.3472L6.91894 8.3842C6.90784 8.399 6.89304 8.4138 6.87824 8.4286C6.84864 8.4582 6.83384 8.5026 6.84124 8.547C6.84494 8.5914 6.87084 8.6284 6.90784 8.6506Z" fill="black"/>
<path d="M13.1315 40.2375C13.1093 40.1672 13.039 40.1265 12.965 40.145C10.8708 40.6963 8.83582 41.4807 6.91182 42.476C6.87482 42.4945 6.84522 42.5315 6.83782 42.5759C6.83042 42.6203 6.84522 42.661 6.87482 42.6943L6.94882 42.772C7.07832 42.9126 7.21892 43.0495 7.36322 43.1901L7.46682 43.1013L7.37062 43.1975L7.46312 43.29C7.59632 43.4195 7.72952 43.5527 7.86642 43.6785C7.95522 43.7599 8.04402 43.8413 8.13652 43.919L8.34002 44.1003C8.50282 44.2446 8.66562 44.3926 8.83582 44.5295C8.98752 44.6553 9.13922 44.7774 9.29832 44.9069C9.47592 45.0512 9.65352 45.1955 9.83852 45.3324C9.94582 45.4101 10.0494 45.4878 10.1567 45.5655L10.3195 45.6839C10.5045 45.8171 10.6895 45.9503 10.8782 46.0761C11.0447 46.1871 11.2112 46.2944 11.3777 46.4017C11.5701 46.5238 11.7588 46.6459 11.9549 46.7606C12.1251 46.8642 12.299 46.9641 12.4692 47.064C12.6653 47.1787 12.8651 47.286 13.0686 47.397C13.1537 47.4414 13.2425 47.4858 13.3313 47.5302C13.4201 47.5783 13.5089 47.6227 13.5977 47.6671C13.8012 47.7707 14.0084 47.8669 14.2156 47.9668C14.3932 48.0519 14.5708 48.1333 14.7558 48.211C14.9001 48.2739 15.0407 48.3331 15.185 48.3923L15.3848 48.4737C15.5661 48.5477 15.7474 48.6217 15.9324 48.692C16.147 48.7734 16.3653 48.8511 16.5836 48.9251L16.6243 48.9399C16.7945 48.9991 16.9647 49.0583 17.1386 49.1138C17.3606 49.1841 17.5826 49.2507 17.8083 49.3173L17.8786 49.3395C18.0377 49.3876 18.2005 49.432 18.3596 49.4764C18.4003 49.4875 18.4447 49.4986 18.4854 49.506L18.5779 49.5282C18.589 49.5319 18.6001 49.5319 18.6112 49.5319C18.6593 49.5319 18.7037 49.506 18.7296 49.4616C18.7592 49.4061 18.7518 49.3395 18.7074 49.2988C16.1359 46.8013 14.2045 43.6674 13.1315 40.2375Z" fill="black"/>
<path d="M12.5726 38.6761C12.5911 38.6428 12.5948 38.6058 12.5837 38.5725C11.4478 34.6283 10.8521 30.5472 10.8151 26.4439C10.8151 26.3699 10.7522 26.307 10.6782 26.307H0.1369C0.0999 26.307 0.0629 26.3218 0.0407 26.3477C0.0111 26.3773 0 26.4106 0 26.4476C0.1924 31.8755 2.2089 37.1702 5.6758 41.3475C5.7017 41.3808 5.7424 41.3956 5.7794 41.3956C5.8016 41.3956 5.8238 41.3919 5.846 41.3808C7.9476 40.2449 10.1824 39.3532 12.4875 38.739C12.5245 38.7316 12.5541 38.7057 12.5726 38.6761Z" fill="black"/>
<path fill-rule="evenodd" clip-rule="evenodd" d="M49.6757 54.8525C49.9754 54.5528 49.9791 54.0681 49.6794 53.7684L41.6097 45.6987C43.4597 43.1753 44.4476 39.9785 44.0776 36.5375C43.4264 30.4362 38.5128 25.53 32.4078 24.901C24.0791 24.0389 17.0935 31.0208 17.9519 39.3569C18.5809 45.4619 23.4834 50.3718 29.5884 51.0304C33.0294 51.4004 36.2262 50.4125 38.7533 48.5625L46.8193 56.6248C47.119 56.9282 47.6037 56.9282 47.9034 56.6248L49.6757 54.8525ZM31.0203 28.8711C36.0338 28.8711 40.1149 32.9485 40.1149 37.9657C40.1149 42.9829 36.0338 47.0603 31.0203 47.0603C26.0068 47.0603 21.9257 42.9792 21.9257 37.9657C21.9257 32.9522 26.0068 28.8711 31.0203 28.8711Z" fill="black"/>
<path d="M31.0204 47.0603C36.0432 47.0603 40.115 42.9885 40.115 37.9657C40.115 32.9429 36.0432 28.8711 31.0204 28.8711C25.9976 28.8711 21.9258 32.9429 21.9258 37.9657C21.9258 42.9885 25.9976 47.0603 31.0204 47.0603Z" fill="white"/>
<path d="M63.7954 14.985C64.4577 14.985 65.0201 14.874 65.49 14.652C65.9599 14.43 66.3447 14.1303 66.6444 13.7529C66.9441 13.3755 67.1661 12.9463 67.3141 12.4616C67.4584 11.9769 67.5324 11.4663 67.5324 10.9298V10.6523H69.4675V10.9298C69.4675 11.7438 69.3454 12.5097 69.0975 13.2238C68.8533 13.9379 68.4907 14.5595 68.0134 15.0923C67.5361 15.6214 66.9441 16.0395 66.2374 16.3355C65.5307 16.6352 64.7167 16.7869 63.7917 16.7869C62.0083 16.7869 60.6171 16.2245 59.6181 15.1034C58.6191 13.9823 58.1196 12.3432 58.1196 10.1935V6.5971C58.1196 4.5066 58.6191 2.886 59.6181 1.7316C60.6245 0.5772 62.012 0 63.7954 0C64.7167 0 65.5307 0.1517 66.2411 0.4514C66.9478 0.7511 67.5398 1.1655 68.0171 1.6946C68.4944 2.2237 68.8533 2.849 69.1012 3.5631C69.3454 4.2772 69.4712 5.0431 69.4712 5.8571V6.1346H67.5361V5.8571C67.5213 5.3354 67.4399 4.8285 67.2956 4.3364C67.1476 3.8443 66.9256 3.4114 66.6259 3.034C66.3262 2.6566 65.9451 2.3569 65.4863 2.1349C65.0238 1.9129 64.4651 1.8019 63.8028 1.8019C62.5559 1.8019 61.6235 2.257 61.0019 3.1635C60.3803 4.07 60.0695 5.2614 60.0695 6.7377V10.0566C60.0695 11.6402 60.3803 12.8575 61.0019 13.7122C61.6198 14.5595 62.5522 14.985 63.7954 14.985Z" fill="black"/>
<path fill-rule="evenodd" clip-rule="evenodd" d="M76.553 0.4736C76.2385 0.7881 76.0794 1.1692 76.0794 1.6132C76.0794 2.0609 76.2385 2.442 76.553 2.7528C76.8675 3.0673 77.2449 3.2264 77.6926 3.2264C78.1366 3.2264 78.5177 3.0673 78.8322 2.7528C79.1467 2.4383 79.3058 2.0609 79.3058 1.6132C79.3058 1.1692 79.1467 0.7881 78.8322 0.4736C78.5177 0.1591 78.1366 0 77.6926 0C77.2486 0 76.8675 0.1591 76.553 0.4736ZM76.8194 14.8037H72.8086V16.4613H82.3546V14.8H78.6176V5.0246H73.223V6.6859H76.8194V14.8037Z" fill="black"/>
<path d="M91.6304 16.4613H88.0784L84.0898 5.0246H86.2099L89.7138 15.6288H89.9913L93.4952 5.0246H95.6153L91.6304 16.4613Z" fill="black"/>
<path fill-rule="evenodd" clip-rule="evenodd" d="M102.675 0.4736C102.36 0.7881 102.201 1.1692 102.201 1.6132C102.201 2.0609 102.36 2.442 102.675 2.7528C102.989 3.0673 103.367 3.2264 103.814 3.2264C104.258 3.2264 104.64 3.0673 104.954 2.7528C105.269 2.4383 105.428 2.0609 105.428 1.6132C105.428 1.1692 105.269 0.7881 104.954 0.4736C104.64 0.1591 104.258 0 103.814 0C103.37 0 102.989 0.1591 102.675 0.4736ZM102.938 14.8037H98.9268V16.4613H108.473V14.8H104.736V5.0246H99.3412V6.6859H102.938V14.8037Z" fill="black"/>
<path d="M122.829 12.4061C122.706 13.0351 122.496 13.6197 122.196 14.1599C121.896 14.6964 121.515 15.1626 121.056 15.5548C120.594 15.947 120.057 16.2504 119.443 16.465C118.829 16.6796 118.144 16.7869 117.39 16.7869C116.59 16.7869 115.832 16.6574 115.118 16.3947C114.404 16.132 113.778 15.7546 113.238 15.2551C112.702 14.7556 112.272 14.1451 111.958 13.4236C111.643 12.7021 111.484 11.8696 111.484 10.9335V10.656C111.484 9.7347 111.643 8.9022 111.958 8.1659C112.272 7.4296 112.698 6.8043 113.238 6.2974C113.775 5.7905 114.404 5.3983 115.118 5.1208C115.832 4.8433 116.59 4.7064 117.39 4.7064C118.111 4.7064 118.781 4.8137 119.395 5.0283C120.009 5.2429 120.553 5.5463 121.019 5.9385C121.489 6.3307 121.874 6.7969 122.174 7.3334C122.473 7.8736 122.677 8.4545 122.784 9.0872L120.986 9.5016C120.942 9.102 120.827 8.7135 120.653 8.3361C120.475 7.9587 120.239 7.6294 119.939 7.3445C119.639 7.0596 119.273 6.8339 118.844 6.6637C118.414 6.4935 117.915 6.4084 117.345 6.4084C116.79 6.4084 116.272 6.512 115.787 6.7192C115.303 6.9264 114.877 7.2187 114.507 7.5961C114.137 7.9735 113.849 8.4212 113.641 8.9466C113.434 9.4683 113.331 10.0381 113.331 10.6523V10.9298C113.331 11.5773 113.434 12.1545 113.641 12.6725C113.849 13.1905 114.137 13.6234 114.507 13.9749C114.877 14.3301 115.306 14.6002 115.799 14.7926C116.291 14.985 116.82 15.0812 117.39 15.0812C117.959 15.0812 118.455 14.9924 118.877 14.8148C119.299 14.6372 119.661 14.4078 119.961 14.1229C120.261 13.838 120.498 13.5124 120.675 13.1424C120.853 12.7724 120.971 12.3876 121.034 11.988L122.829 12.4061Z" fill="black"/>
<path d="M133.966 0.321899H145.31V2.1201H140.607V16.4613H138.672V2.1201H133.97V0.321899H133.966Z" fill="black"/>
<path fill-rule="evenodd" clip-rule="evenodd" d="M147.908 11.2998C147.953 12.434 148.308 13.3504 148.969 14.0415C149.632 14.7334 150.553 15.0775 151.737 15.0775C152.273 15.0775 152.743 15.0146 153.143 14.8925C153.542 14.7704 153.883 14.6002 154.168 14.3856C154.453 14.171 154.682 13.9194 154.86 13.6345C155.037 13.3496 155.178 13.0462 155.285 12.7243L156.991 13.1868C156.669 14.2487 156.073 15.1108 155.204 15.7805C154.334 16.4502 153.165 16.7832 151.689 16.7832C150.875 16.7832 150.124 16.6426 149.439 16.3577C148.755 16.0728 148.166 15.6695 147.674 15.1478C147.182 14.6261 146.797 14.0045 146.52 13.2793C146.242 12.5578 146.105 11.7586 146.105 10.8817V10.3267C146.105 9.5275 146.246 8.7838 146.531 8.0919C146.816 7.4 147.212 6.8043 147.719 6.3048C148.226 5.8053 148.821 5.4131 149.506 5.1282C150.19 4.8433 150.93 4.7027 151.729 4.7027C152.666 4.7027 153.48 4.8766 154.16 5.2207C154.845 5.5685 155.404 5.994 155.844 6.5009C156.28 7.0078 156.606 7.5628 156.813 8.1622C157.02 8.7616 157.124 9.3129 157.124 9.8235V11.2998H147.908ZM150.316 6.6489C150.753 6.4898 151.226 6.4084 151.733 6.4084C152.177 6.4084 152.614 6.4861 153.036 6.6415C153.457 6.7932 153.835 7.0078 154.164 7.2853C154.493 7.5628 154.763 7.8995 154.971 8.2991C155.178 8.6987 155.3 9.1427 155.33 9.6348H147.952C148.015 9.1723 148.148 8.7468 148.355 8.3546C148.562 7.9624 148.832 7.622 149.162 7.3297C149.495 7.0374 149.879 6.8117 150.316 6.6489Z" fill="black"/>
<path d="M171.702 12.4061C171.58 13.0351 171.369 13.6197 171.069 14.1599C170.77 14.6964 170.389 15.1626 169.93 15.5548C169.467 15.947 168.931 16.2504 168.317 16.465C167.702 16.6796 167.018 16.7869 166.263 16.7869C165.464 16.7869 164.705 16.6574 163.991 16.3947C163.277 16.132 162.652 15.7546 162.112 15.2551C161.575 14.7556 161.146 14.1451 160.832 13.4236C160.517 12.7021 160.358 11.8696 160.358 10.9335V10.656C160.358 9.7347 160.517 8.9022 160.832 8.1659C161.146 7.4296 161.572 6.8043 162.112 6.2974C162.648 5.7905 163.277 5.3983 163.991 5.1208C164.705 4.8433 165.464 4.7064 166.263 4.7064C166.985 4.7064 167.654 4.8137 168.269 5.0283C168.883 5.2429 169.427 5.5463 169.893 5.9385C170.363 6.3307 170.748 6.7969 171.047 7.3334C171.347 7.8736 171.55 8.4545 171.658 9.0872L169.86 9.5016C169.815 9.102 169.7 8.7135 169.527 8.3361C169.349 7.9587 169.112 7.6294 168.812 7.3445C168.513 7.0596 168.146 6.8339 167.717 6.6637C167.288 6.4935 166.789 6.4084 166.219 6.4084C165.664 6.4084 165.146 6.512 164.661 6.7192C164.176 6.9264 163.751 7.2187 163.381 7.5961C163.011 7.9735 162.722 8.4212 162.515 8.9466C162.308 9.4683 162.204 10.0381 162.204 10.6523V10.9298C162.204 11.5773 162.308 12.1545 162.515 12.6725C162.722 13.1868 163.011 13.6234 163.381 13.9749C163.751 14.3301 164.18 14.6002 164.672 14.7926C165.164 14.985 165.693 15.0812 166.263 15.0812C166.833 15.0812 167.329 14.9924 167.751 14.8148C168.172 14.6372 168.535 14.4078 168.835 14.1229C169.134 13.838 169.371 13.5124 169.549 13.1424C169.726 12.7724 169.845 12.3876 169.908 11.988L171.702 12.4061Z" fill="black"/>
<path d="M177.141 16.4613H175.343V0.321899H177.141V7.1003H177.418C177.774 6.364 178.269 5.7794 178.906 5.3465C179.542 4.9173 180.323 4.699 181.244 4.699C182.491 4.699 183.501 5.1097 184.275 5.9311C185.052 6.7525 185.44 7.9883 185.44 9.6311V16.4576H183.642V10.0048C183.642 8.806 183.372 7.9069 182.835 7.3075C182.299 6.7081 181.566 6.4084 180.645 6.4084C179.553 6.4084 178.695 6.7821 178.073 7.5258C177.452 8.2732 177.141 9.2648 177.141 10.5117V16.4613Z" fill="black"/>
<path d="M68.531 56.7765H60.1875V24.7641H68.531V56.7765Z" fill="black"/>
<path d="M96.7473 34.2731C98.268 35.7605 99.0265 37.8806 99.0265 40.626V56.7765H90.7792V42.9052C90.7792 41.255 90.4795 40.0858 89.8801 39.3902C89.2807 38.6946 88.4334 38.3468 87.3345 38.3468C86.0395 38.3468 84.9887 38.8093 84.1821 39.7306C83.3718 40.6519 82.9685 42.0653 82.9685 43.9745V56.7802H74.7212V32.5267H82.0953L82.3395 37.185C83.1165 35.4719 84.2154 34.188 85.6362 33.3296C87.057 32.4749 88.722 32.0457 90.6312 32.0457C93.1879 32.042 95.2266 32.7857 96.7473 34.2731Z" fill="black"/>
<path fill-rule="evenodd" clip-rule="evenodd" d="M129.133 56.7765V24.8418H120.89V36.5967C120.176 35.1759 119.206 34.0622 117.978 33.2519C116.749 32.4416 115.277 32.0383 113.564 32.0383C110.426 32.0383 107.969 33.1557 106.19 35.3868C104.41 37.6179 103.522 40.737 103.522 44.7478C103.522 48.6957 104.403 51.7667 106.164 53.9645C107.925 56.1623 110.374 57.2612 113.512 57.2612C115.321 57.2612 116.912 56.8098 118.289 55.9033C119.665 55.0005 120.708 53.7536 121.419 52.17L121.711 56.7765H129.133ZM120.886 45.621C120.79 47.434 120.346 48.8141 119.554 49.7687C118.759 50.7233 117.7 51.2006 116.376 51.2043C114.922 51.2043 113.797 50.6678 113.005 49.6022C112.213 48.5366 111.817 46.8864 111.817 44.6553C111.817 42.4242 112.213 40.774 113.005 39.7084C113.797 38.6391 114.922 38.1063 116.376 38.1063C117.704 38.1063 118.762 38.591 119.554 39.5604C120.346 40.5298 120.79 41.9025 120.886 43.6822V45.621Z" fill="black"/>
<path fill-rule="evenodd" clip-rule="evenodd" d="M141.584 47.027H158.123C158.286 46.3166 158.367 45.4101 158.367 44.3112C158.367 40.4299 157.324 37.4144 155.237 35.2647C153.15 33.115 150.15 32.0383 146.239 32.0383C142.198 32.0383 139.076 33.1372 136.878 35.335C134.68 37.5328 133.581 40.6371 133.581 44.6479C133.581 48.6587 134.702 51.763 136.952 53.9608C139.198 56.1586 142.439 57.2575 146.675 57.2575C149.521 57.2575 151.922 56.7173 153.879 55.6332C155.833 54.5491 157.15 52.9729 157.831 50.9046L151.138 48.7697C150.879 49.6429 150.368 50.3052 149.609 50.7566C148.851 51.2117 147.87 51.4374 146.675 51.4374C145.255 51.4374 144.111 51.0822 143.257 50.3718C142.402 49.6614 141.843 48.5477 141.584 47.027ZM150.657 42.5648H141.536C142.021 39.3976 143.571 37.814 146.194 37.8103C148.781 37.8103 150.268 39.3976 150.657 42.5648Z" fill="black"/>
<path d="M177.811 56.7765L173.056 48.3368L168.205 56.7765H159.085L167.817 44.5036L159.425 32.523H168.786L173.249 40.6223L177.807 32.523H186.924L178.484 44.5517L187.116 56.7765H177.811Z" fill="black"/>
</svg>
