<svg width="368" height="144" viewBox="0 0 368 144" fill="none" xmlns="http://www.w3.org/2000/svg">
<path d="M107.418 85.2264C107.418 86.2005 107.348 87.1693 107.209 88.122C111.296 82.4007 113.657 75.517 113.905 68.4717C113.905 68.4179 113.889 68.3641 113.851 68.3264C113.813 68.2888 113.765 68.2672 113.711 68.2672H98.3879C98.361 68.2672 98.3395 68.2726 98.318 68.2834C103.799 71.9271 107.418 78.1596 107.418 85.2264Z" fill="#0CB2E7"/>
<path d="M94.0259 66.109H95.8331C95.8869 66.109 95.9353 66.0875 95.9729 66.0498C96.0106 66.0121 96.0321 65.9637 96.0321 65.9098C95.9676 60.1187 95.1178 54.3598 93.5096 48.7946C93.4827 48.6924 93.3751 48.6332 93.273 48.6547C88.6744 49.7042 83.9521 50.2693 79.2352 50.3285C79.1276 50.3285 79.0415 50.42 79.0415 50.5277V65.9098C79.0415 66.0175 79.1276 66.109 79.2405 66.109H80.1656C82.3278 65.3232 84.6674 64.8872 87.0985 64.8872C89.5295 64.8872 91.8584 65.3178 94.0259 66.109Z" fill="#0CB2E7"/>
<path d="M79.2298 48.7673C79.2351 48.7673 79.2351 48.7673 79.2298 48.7673C83.71 48.7027 88.1903 48.1753 92.5522 47.1957C92.606 47.185 92.6544 47.1473 92.6813 47.0988C92.7082 47.0504 92.7136 46.9912 92.6921 46.9374C89.551 38.1376 84.6513 32.6532 79.262 31.8835C79.2082 31.8781 79.1491 31.8943 79.1061 31.932C79.063 31.9696 79.0361 32.0235 79.0361 32.0827V48.5682C79.0361 48.622 79.0576 48.6704 79.0953 48.7081C79.1276 48.7458 79.1814 48.7673 79.2298 48.7673Z" fill="#0CB2E7"/>
<path d="M95.6341 48.1165C95.6072 48.1649 95.6018 48.2187 95.618 48.2672C97.2692 54.0045 98.1351 59.941 98.1889 65.9098C98.1889 66.0175 98.2803 66.1036 98.3879 66.1036H113.711C113.765 66.1036 113.819 66.0821 113.851 66.0444C113.889 66.0067 113.91 65.9529 113.905 65.8991C113.625 58.0035 110.694 50.307 105.654 44.2252C105.595 44.1498 105.487 44.1337 105.407 44.1767C102.352 45.8291 99.1032 47.1261 95.7524 48.0196C95.704 48.0357 95.661 48.068 95.6341 48.1165Z" fill="#0CB2E7"/>
<path d="M94.822 45.8452C94.8488 45.9313 94.9241 45.9851 95.0102 45.9851C95.0263 45.9851 95.0425 45.9851 95.0586 45.9798C98.1082 45.1778 101.066 44.0368 103.869 42.589C103.922 42.5621 103.965 42.5083 103.976 42.4437C103.987 42.3791 103.965 42.3199 103.922 42.2715L103.815 42.153C103.67 42.0023 103.514 41.8516 103.363 41.7063L103.083 41.4318C102.879 41.2327 102.68 41.0282 102.47 40.8344C102.341 40.716 102.212 40.5976 102.078 40.4792C101.991 40.4038 101.905 40.3285 101.819 40.2478L101.766 40.1993C101.534 39.9948 101.303 39.7849 101.066 39.5911C100.867 39.4243 100.668 39.2628 100.464 39.1014L100.389 39.0422C100.131 38.8323 99.867 38.6277 99.6034 38.4286C99.3721 38.251 99.1355 38.0841 98.8988 37.9173C98.6299 37.7235 98.361 37.5298 98.0867 37.3468C97.8447 37.1853 97.6026 37.0239 97.3606 36.8732C97.0809 36.6955 96.8066 36.5179 96.5216 36.3511C96.2741 36.2004 96.0214 36.0551 95.7739 35.9151C95.4889 35.7483 95.1985 35.5922 94.9026 35.4307C94.7736 35.3662 94.6498 35.3016 94.5208 35.237C94.3917 35.167 94.2626 35.1024 94.1335 35.0378C93.8377 34.8871 93.5365 34.7418 93.2353 34.6019C92.9771 34.4781 92.7136 34.3597 92.4501 34.2413C92.2457 34.1498 92.0467 34.0691 91.8423 33.9829L91.5303 33.8538C91.2668 33.7461 91.0032 33.6385 90.7343 33.5362C90.4224 33.4178 90.105 33.3048 89.7877 33.1972C89.5188 33.1057 89.2552 33.0088 88.9809 32.9227C88.6582 32.8204 88.3355 32.7235 88.0074 32.6266L87.9698 32.6159C87.717 32.5405 87.4588 32.4652 87.206 32.4006C87.1469 32.3844 87.0877 32.3683 87.0232 32.3575L86.8887 32.3252C86.8027 32.3037 86.7112 32.3414 86.6682 32.4221C86.6252 32.4975 86.6413 32.5943 86.7058 32.6589C90.4493 36.2973 93.2568 40.8559 94.822 45.8452Z" fill="#0CB2E7"/>
<path d="M42.199 66.109H57.5223C57.6298 66.109 57.7213 66.0229 57.7213 65.9152C57.7804 59.9464 58.6464 54.0099 60.2922 48.2725C60.3083 48.2187 60.3029 48.1649 60.276 48.1218C60.2491 48.0734 60.2061 48.0411 60.1523 48.0303C56.7962 47.1369 53.5476 45.8398 50.498 44.1875C50.4173 44.1444 50.3097 44.1606 50.2506 44.2359C45.2109 50.307 42.2797 58.0035 42 65.8991C42 65.9529 42.0161 66.0067 42.0538 66.0444C42.0914 66.0875 42.1452 66.109 42.199 66.109Z" fill="#0CB2E7"/>
<path d="M66.8539 87.0994C65.6814 87.2931 64.5143 87.5192 63.3525 87.7829C63.2987 87.7937 63.2503 87.8313 63.2234 87.8798C63.1966 87.9282 63.1912 87.9874 63.2127 88.0412C66.3591 96.841 71.2589 102.325 76.6481 103.095C76.6589 103.095 76.6642 103.095 76.675 103.095C76.7234 103.095 76.7664 103.079 76.8041 103.047C76.8471 103.009 76.874 102.955 76.874 102.896V102.799C71.3449 99.5644 67.4671 93.8001 66.8539 87.0994Z" fill="#0CB2E7"/>
<path d="M75.8844 68.2672H60.077C60.0233 68.2672 59.9748 68.2888 59.9372 68.3264C59.8995 68.3641 59.878 68.4125 59.878 68.4664C59.9426 74.2576 60.7924 80.0218 62.4005 85.5816C62.4274 85.6677 62.5027 85.7269 62.5888 85.7269C62.6049 85.7269 62.6157 85.7269 62.6318 85.7215C63.9979 85.4094 65.3802 85.1456 66.7679 84.9196C66.8754 77.9766 70.4736 71.8625 75.8844 68.2672Z" fill="#0CB2E7"/>
<path d="M63.2235 47.0988C63.2503 47.1473 63.2988 47.185 63.3525 47.1957C67.7145 48.1753 72.1947 48.7027 76.675 48.7673C76.675 48.7673 76.675 48.7673 76.6804 48.7673C76.7342 48.7673 76.7826 48.7458 76.8202 48.7081C76.8579 48.6704 76.8794 48.622 76.8794 48.5682V32.0827C76.8794 32.0235 76.8525 31.9696 76.8095 31.932C76.7664 31.8943 76.7073 31.8781 76.6535 31.8835C71.2535 32.6532 66.3591 38.1376 63.2127 46.9374C63.1912 46.9912 63.1966 47.0504 63.2235 47.0988Z" fill="#0CB2E7"/>
<path d="M62.6372 48.6493C62.535 48.6224 62.4328 48.687 62.4005 48.7892C60.7924 54.3544 59.9426 60.1133 59.878 65.9045C59.878 65.9583 59.8995 66.0067 59.9372 66.0444C59.9748 66.0821 60.0233 66.1036 60.077 66.1036H76.675C76.7826 66.1036 76.874 66.0175 76.874 65.9045V50.5223C76.874 50.4146 76.7879 50.3231 76.6804 50.3231C71.9635 50.2639 67.2358 49.6988 62.6372 48.6493Z" fill="#0CB2E7"/>
<path d="M52.0416 43.186C54.8384 44.6338 57.7966 45.7695 60.8408 46.5768C60.8569 46.5822 60.8731 46.5822 60.8892 46.5822C60.9753 46.5822 61.0506 46.5283 61.0774 46.4422C62.6426 41.4584 65.4448 36.8997 69.1882 33.2613C69.2527 33.1968 69.2689 33.0999 69.2204 33.0245C69.1774 32.9438 69.086 32.9061 68.9999 32.9277L68.8547 32.9653C68.8009 32.9761 68.7418 32.9922 68.688 33.0084C68.4782 33.0622 68.2685 33.1268 68.0641 33.186L67.8812 33.2398C67.5585 33.3313 67.2412 33.4282 66.9131 33.5305C66.6442 33.6166 66.3806 33.7081 66.1009 33.8049L66.0203 33.8319C65.7352 33.9341 65.4501 34.031 65.1651 34.1386C64.8962 34.2409 64.6326 34.3485 64.3637 34.4562L63.4547 34.8383C63.1912 34.9567 62.9276 35.0751 62.6641 35.1989C62.3683 35.3389 62.0725 35.4788 61.7766 35.6295C61.5185 35.7587 61.2603 35.8932 61.0075 36.0332C60.7171 36.1892 60.432 36.3453 60.1523 36.5068C59.8942 36.6521 59.6414 36.7974 59.394 36.9481C59.1412 37.0988 58.8938 37.2549 58.6464 37.411L58.5657 37.4648C58.3183 37.6209 58.0709 37.7824 57.8288 37.9438C57.5599 38.1268 57.291 38.3152 57.0221 38.5089C56.7854 38.6812 56.5488 38.848 56.3121 39.0256C56.1508 39.144 55.9948 39.2678 55.8388 39.3916C55.7366 39.4723 55.6398 39.5531 55.5322 39.6338L55.4247 39.7199C55.231 39.876 55.0374 40.0267 54.8546 40.1828C54.634 40.3658 54.4189 40.5542 54.2091 40.7425L53.9187 41.0009C53.7627 41.1408 53.6014 41.2807 53.4508 41.4261C53.241 41.6252 53.0312 41.8243 52.8269 42.0289L52.5364 42.3141C52.3912 42.4541 52.246 42.594 52.1062 42.7447L52.0577 42.7985C52.0416 42.82 52.0201 42.8416 51.9986 42.8631C51.9556 42.9062 51.934 42.9707 51.9448 43.0353C51.9502 43.0999 51.9878 43.1537 52.0416 43.186Z" fill="#0CB2E7"/>
<path d="M61.0882 88.531C61.0559 88.4287 60.9537 88.3695 60.8462 88.3965C57.8019 89.1984 54.8438 90.3394 52.047 91.7872C51.9932 91.8141 51.9502 91.8679 51.9394 91.9325C51.9287 91.9971 51.9502 92.0563 51.9932 92.1048L52.1008 92.2178C52.289 92.4223 52.4934 92.6214 52.7032 92.826L52.8538 92.6968L52.7139 92.8367L52.8484 92.9713C53.042 93.1597 53.2356 93.3534 53.4346 93.5364C53.5637 93.6548 53.6928 93.7732 53.8273 93.8862L54.1231 94.15C54.3597 94.3599 54.5964 94.5752 54.8438 94.7743C55.0643 94.9573 55.2848 95.1349 55.5161 95.3233C55.7743 95.5332 56.0324 95.7431 56.3014 95.9422C56.4573 96.0552 56.6079 96.1683 56.7639 96.2813L57.0006 96.4535C57.2695 96.6473 57.5384 96.841 57.8127 97.024C58.0547 97.1855 58.2968 97.3416 58.5388 97.4977C58.8185 97.6753 59.0928 97.8529 59.3778 98.0197C59.6252 98.1704 59.878 98.3158 60.1254 98.4611C60.4105 98.6279 60.7009 98.784 60.9968 98.9455C61.1205 99.01 61.2495 99.0746 61.3786 99.1392C61.5077 99.2092 61.6368 99.2738 61.7659 99.3384C62.0617 99.4891 62.3629 99.629 62.6641 99.7743C62.9223 99.8981 63.1804 100.017 63.4493 100.13C63.6591 100.221 63.8635 100.307 64.0732 100.393L64.3637 100.512C64.6272 100.619 64.8908 100.727 65.1597 100.829C65.4716 100.948 65.789 101.061 66.1063 101.168L66.1655 101.19C66.4129 101.276 66.6603 101.362 66.9131 101.443C67.2358 101.545 67.5585 101.642 67.8866 101.739L67.9888 101.771C68.22 101.841 68.4567 101.906 68.688 101.97C68.7471 101.986 68.8117 102.003 68.8708 102.013L69.0053 102.046C69.0214 102.051 69.0376 102.051 69.0537 102.051C69.1236 102.051 69.1882 102.013 69.2258 101.949C69.2688 101.868 69.2581 101.771 69.1935 101.712C65.4555 98.0789 62.6479 93.5203 61.0882 88.531Z" fill="#0CB2E7"/>
<path d="M60.276 86.2597C60.3029 86.2113 60.3083 86.1575 60.2922 86.109C58.641 80.3717 57.7751 74.4352 57.7213 68.4664C57.7213 68.3587 57.6298 68.2672 57.5223 68.2672H42.199C42.1452 68.2672 42.0914 68.2888 42.0592 68.3264C42.0161 68.3695 42 68.4179 42 68.4717C42.2797 76.3674 45.2109 84.0692 50.2506 90.1457C50.2882 90.1941 50.3474 90.2156 50.4012 90.2156C50.4334 90.2156 50.4657 90.2102 50.498 90.1941C53.553 88.5418 56.8015 87.2447 60.1523 86.3512C60.2061 86.3405 60.2491 86.3028 60.276 86.2597Z" fill="#0CB2E7"/>
<path d="M114.107 108.332C114.543 108.768 114.537 109.473 114.102 109.909L111.526 112.487C111.09 112.928 110.385 112.928 109.95 112.487L98.2246 100.759C94.5511 103.45 89.9041 104.887 84.9021 104.349C76.0276 103.391 68.9012 96.2488 67.9868 87.3682C66.739 75.2422 76.8936 65.0861 89.0005 66.3402C97.875 67.2551 105.018 74.3919 105.964 83.267C106.502 88.2724 105.066 92.9226 102.377 96.5932C102.382 96.5986 111.359 105.581 114.107 108.332ZM100.204 85.3445C100.204 78.0463 94.2714 72.1152 86.9836 72.1152C79.6958 72.1152 73.7633 78.0517 73.7633 85.3445C73.7633 92.6374 79.6958 98.5739 86.9836 98.5739C94.2714 98.5739 100.204 92.6427 100.204 85.3445Z" fill="#FEFEFE"/>
<path d="M86.984 98.5737C94.2853 98.5737 100.204 92.6508 100.204 85.3444C100.204 78.0381 94.2853 72.1151 86.984 72.1151C79.6826 72.1151 73.7637 78.0381 73.7637 85.3444C73.7637 92.6508 79.6826 98.5737 86.984 98.5737Z" fill="#045177"/>
<path d="M134.735 51.7981C135.698 51.7981 136.515 51.6366 137.198 51.3137C137.881 50.9907 138.441 50.5548 138.876 50.0058C139.312 49.4568 139.635 48.8325 139.85 48.1274C140.06 47.4224 140.167 46.6796 140.167 45.8992V45.4956H142.98V45.8992C142.98 47.0833 142.803 48.1974 142.442 49.2362C142.087 50.2749 141.56 51.1791 140.866 51.9541C140.173 52.7238 139.312 53.332 138.285 53.7626C137.257 54.1985 136.074 54.4192 134.73 54.4192C132.137 54.4192 130.115 53.6011 128.663 51.9703C127.21 50.3395 126.484 47.9552 126.484 44.8282V39.5967C126.484 36.5558 127.21 34.1984 128.663 32.5192C130.126 30.84 132.143 30.0004 134.735 30.0004C136.074 30.0004 137.257 30.221 138.29 30.657C139.317 31.0929 140.178 31.6957 140.872 32.4654C141.566 33.235 142.087 34.1446 142.448 35.1834C142.803 36.2221 142.986 37.3362 142.986 38.5203V38.924H140.173V38.5203C140.151 37.7614 140.033 37.0241 139.823 36.3082C139.608 35.5924 139.285 34.9627 138.849 34.4137C138.414 33.8647 137.86 33.4288 137.193 33.1059C136.521 32.7829 135.708 32.6215 134.746 32.6215C132.933 32.6215 131.578 33.2835 130.674 34.6021C129.771 35.9207 129.319 37.6538 129.319 39.8013V44.629C129.319 46.9326 129.771 48.7033 130.674 49.9466C131.572 51.1791 132.928 51.7981 134.735 51.7981Z" fill="#0CB2E7"/>
<path d="M147.836 51.5339H153.666V39.7255H148.438V37.3089H156.28V51.5285H161.712V53.9451H147.836V51.5339ZM152.591 32.3466C152.591 31.7007 152.822 31.1463 153.279 30.6889C153.736 30.2314 154.29 29.9999 154.936 29.9999C155.581 29.9999 156.135 30.2314 156.592 30.6889C157.049 31.1463 157.281 31.7007 157.281 32.3466C157.281 32.9978 157.049 33.5468 156.592 34.0043C156.135 34.4617 155.581 34.6932 154.936 34.6932C154.285 34.6932 153.736 34.4617 153.279 34.0043C152.822 33.5522 152.591 32.9978 152.591 32.3466Z" fill="#0CB2E7"/>
<path d="M175.198 53.945H170.034L164.236 37.3088H167.318L172.412 52.734H172.815L177.908 37.3088H180.99L175.198 53.945Z" fill="#0CB2E7"/>
<path d="M185.803 51.5339H191.633V39.7255H186.405V37.3089H194.247V51.5285H199.679V53.9451H185.803V51.5339ZM190.563 32.3466C190.563 31.7007 190.794 31.1463 191.251 30.6889C191.708 30.2314 192.262 29.9999 192.908 29.9999C193.553 29.9999 194.107 30.2314 194.564 30.6889C195.021 31.1463 195.253 31.7007 195.253 32.3466C195.253 32.9978 195.021 33.5468 194.564 34.0043C194.107 34.4617 193.553 34.6932 192.908 34.6932C192.257 34.6932 191.708 34.4617 191.251 34.0043C190.794 33.5522 190.563 32.9978 190.563 32.3466Z" fill="#0CB2E7"/>
<path d="M220.549 48.0462C220.372 48.9611 220.065 49.8115 219.629 50.5973C219.194 51.3777 218.64 52.0559 217.973 52.6264C217.3 53.1969 216.521 53.6382 215.628 53.9504C214.735 54.2625 213.74 54.4186 212.643 54.4186C211.481 54.4186 210.378 54.2303 209.34 53.8481C208.302 53.466 207.393 52.917 206.608 52.1904C205.828 51.4638 205.204 50.5758 204.747 49.5263C204.29 48.4767 204.059 47.2658 204.059 45.9041V45.5004C204.059 44.1603 204.29 42.9493 204.747 41.8782C205.204 40.8072 205.823 39.8976 206.608 39.1602C207.388 38.4229 208.302 37.8524 209.34 37.4487C210.378 37.0451 211.481 36.8459 212.643 36.8459C213.691 36.8459 214.665 37.002 215.558 37.3142C216.451 37.6263 217.241 38.0677 217.919 38.6382C218.602 39.2087 219.161 39.8868 219.597 40.6672C220.033 41.453 220.328 42.298 220.484 43.2184L217.871 43.8212C217.806 43.2399 217.639 42.6748 217.386 42.1258C217.128 41.5768 216.784 41.0978 216.348 40.6834C215.913 40.269 215.38 39.9407 214.756 39.6931C214.132 39.4455 213.406 39.3217 212.578 39.3217C211.771 39.3217 211.018 39.4724 210.314 39.7738C209.609 40.0752 208.991 40.5004 208.453 41.0494C207.915 41.5984 207.495 42.2496 207.194 43.0139C206.893 43.7727 206.742 44.6016 206.742 45.495V45.8987C206.742 46.8406 206.893 47.6802 207.194 48.4337C207.495 49.1872 207.915 49.8169 208.453 50.3282C208.991 50.8449 209.615 51.2378 210.33 51.5177C211.045 51.7975 211.814 51.9375 212.643 51.9375C213.471 51.9375 214.192 51.8083 214.805 51.5499C215.418 51.2916 215.945 50.9579 216.381 50.5435C216.816 50.1291 217.161 49.6554 217.419 49.1172C217.677 48.579 217.849 48.0193 217.94 47.438L220.549 48.0462Z" fill="#0CB2E7"/>
<path d="M236.738 30.4682H253.229V33.0839H246.393V53.9451H243.58V33.0839H236.744V30.4682H236.738Z" fill="#0CB2E7"/>
<path d="M257.004 46.4315C257.069 48.0838 257.585 49.4186 258.548 50.4251C259.51 51.4315 260.85 51.9321 262.571 51.9321C263.351 51.9321 264.034 51.8406 264.615 51.663C265.195 51.4853 265.69 51.2378 266.104 50.9256C266.519 50.6134 266.852 50.2474 267.11 49.833C267.368 49.4186 267.573 48.9773 267.729 48.509L270.208 49.1818C269.74 50.7265 268.874 51.9805 267.61 52.9547C266.346 53.9288 264.647 54.4132 262.501 54.4132C261.318 54.4132 260.226 54.2087 259.231 53.7943C258.236 53.3799 257.381 52.7932 256.665 52.0343C255.95 51.2754 255.391 50.3712 254.987 49.3163C254.584 48.2668 254.385 47.1043 254.385 45.8287V45.0214C254.385 43.8588 254.589 42.777 255.003 41.7706C255.417 40.7641 255.993 39.8976 256.73 39.171C257.467 38.4444 258.333 37.8739 259.328 37.4595C260.323 37.045 261.398 36.8405 262.56 36.8405C263.921 36.8405 265.104 37.0935 266.094 37.594C267.089 38.0999 267.901 38.7189 268.541 39.4562C269.176 40.1936 269.649 41.0009 269.95 41.8728C270.251 42.7447 270.402 43.5467 270.402 44.2894V46.4369H257.004V46.4315ZM262.565 39.3217C261.829 39.3217 261.14 39.4401 260.505 39.6715C259.871 39.9083 259.311 40.2367 258.827 40.6618C258.349 41.087 257.956 41.5822 257.655 42.1527C257.354 42.7232 257.16 43.3422 257.069 44.0149H267.793C267.75 43.2991 267.573 42.6532 267.272 42.072C266.97 41.4907 266.578 41.0009 266.099 40.5973C265.62 40.1936 265.072 39.8814 264.459 39.6608C263.845 39.4347 263.211 39.3217 262.565 39.3217Z" fill="#0CB2E7"/>
<path d="M291.594 48.0462C291.416 48.9611 291.11 49.8115 290.674 50.5973C290.239 51.3777 289.685 52.0559 289.018 52.6264C288.345 53.1969 287.565 53.6382 286.673 53.9504C285.78 54.2625 284.785 54.4186 283.688 54.4186C282.526 54.4186 281.423 54.2303 280.385 53.8481C279.347 53.466 278.438 52.917 277.653 52.1904C276.873 51.4638 276.249 50.5758 275.792 49.5263C275.335 48.4767 275.104 47.2658 275.104 45.9041V45.5004C275.104 44.1603 275.335 42.9493 275.792 41.8782C276.249 40.8072 276.868 39.8976 277.653 39.1602C278.433 38.4229 279.347 37.8524 280.385 37.4487C281.423 37.0451 282.526 36.8459 283.688 36.8459C284.736 36.8459 285.71 37.002 286.603 37.3142C287.496 37.6263 288.286 38.0677 288.964 38.6382C289.647 39.2087 290.206 39.8868 290.642 40.6672C291.078 41.453 291.373 42.298 291.529 43.2184L288.915 43.8212C288.851 43.2399 288.684 42.6748 288.431 42.1258C288.173 41.5768 287.829 41.0978 287.393 40.6834C286.958 40.269 286.425 39.9407 285.801 39.6931C285.177 39.4455 284.451 39.3217 283.623 39.3217C282.816 39.3217 282.063 39.4724 281.359 39.7738C280.654 40.0752 280.036 40.5004 279.498 41.0494C278.96 41.5984 278.54 42.2496 278.239 43.0139C277.938 43.7727 277.787 44.6016 277.787 45.495V45.8987C277.787 46.8406 277.938 47.6802 278.239 48.4337C278.54 49.1818 278.96 49.8169 279.498 50.3282C280.036 50.8449 280.659 51.2378 281.375 51.5177C282.09 51.7975 282.859 51.9375 283.688 51.9375C284.516 51.9375 285.237 51.8083 285.85 51.5499C286.463 51.2916 286.99 50.9579 287.426 50.5435C287.861 50.1291 288.205 49.6554 288.464 49.1172C288.722 48.579 288.894 48.0193 288.985 47.438L291.594 48.0462Z" fill="#0CB2E7"/>
<path d="M299.501 53.9451H296.887V30.4682H299.501V40.3283H299.904C300.42 39.2572 301.141 38.4069 302.066 37.7772C302.991 37.1528 304.126 36.8353 305.465 36.8353C307.278 36.8353 308.746 37.4327 309.87 38.6275C311 39.8224 311.565 41.62 311.565 44.0097V53.9397H308.951V44.5533C308.951 42.8095 308.558 41.5016 307.778 40.6297C306.998 39.7578 305.933 39.3218 304.594 39.3218C303.007 39.3218 301.76 39.8654 300.856 40.9472C299.952 42.0344 299.501 43.4769 299.501 45.2906V53.9451Z" fill="#0CB2E7"/>
<path d="M141.619 112.589H129.49V66.0226H141.619V112.589Z" fill="#FEFEFE"/>
<path d="M182.637 79.8547C184.848 82.0183 185.95 85.1023 185.95 89.0959V112.589H173.962V92.4113C173.962 90.0108 173.526 88.3101 172.655 87.2982C171.783 86.2864 170.552 85.7805 168.954 85.7805C167.072 85.7805 165.544 86.4532 164.372 87.7934C163.194 89.1335 162.608 91.1895 162.608 93.9667V112.594H150.619V77.3144H161.338L161.693 84.0905C162.823 81.5985 164.42 79.7309 166.486 78.4823C168.551 77.239 170.971 76.6147 173.747 76.6147C177.463 76.6093 180.427 77.6911 182.637 79.8547Z" fill="#FEFEFE"/>
<path d="M229.714 66.1355V112.589H218.925L218.5 105.888C217.467 108.192 215.951 110.005 213.95 111.319C211.949 112.637 209.636 113.294 207.006 113.294C202.445 113.294 198.885 111.695 196.325 108.498C193.764 105.301 192.484 100.834 192.484 95.0915C192.484 89.2572 193.775 84.7201 196.362 81.4746C198.949 78.2292 202.521 76.6038 207.082 76.6038C209.572 76.6038 211.712 77.1904 213.498 78.3691C215.284 79.5478 216.693 81.1678 217.731 83.2346V66.1355H229.714ZM215.789 102.395C216.94 101.006 217.586 98.9989 217.726 96.3616V93.5414C217.586 90.9526 216.94 88.9558 215.789 87.5457C214.638 86.1356 213.1 85.4305 211.169 85.4305C209.055 85.4305 207.42 86.2055 206.269 87.761C205.118 89.311 204.543 91.7115 204.543 94.9569C204.543 98.2023 205.118 100.603 206.269 102.153C207.42 103.703 209.055 104.483 211.169 104.483C213.095 104.478 214.633 103.784 215.789 102.395Z" fill="#FEFEFE"/>
<path d="M271.855 98.4069H247.813C248.19 100.619 249.002 102.239 250.244 103.272C251.487 104.306 253.149 104.822 255.214 104.822C256.951 104.822 258.377 104.494 259.479 103.832C260.582 103.175 261.324 102.212 261.701 100.942L271.43 104.047C270.441 107.056 268.526 109.349 265.686 110.926C262.841 112.503 259.35 113.289 255.214 113.289C249.056 113.289 244.344 111.69 241.079 108.493C237.809 105.296 236.18 100.78 236.18 94.9462C236.18 89.1119 237.777 84.5963 240.972 81.3993C244.167 78.2023 248.706 76.6038 254.579 76.6038C260.264 76.6038 264.626 78.17 267.66 81.2971C270.693 84.4241 272.21 88.8106 272.21 94.4564C272.21 96.0549 272.092 97.3735 271.855 98.4069ZM247.743 91.916H261.001C260.437 87.3089 258.274 85 254.515 85C250.702 85.0054 248.448 87.3089 247.743 91.916Z" fill="#FEFEFE"/>
<path d="M300.474 112.589L293.563 100.312L286.512 112.589H273.254L285.947 94.7364L273.749 77.309H287.356L293.843 89.0905L300.469 77.309H313.722L301.453 94.8063L314.001 112.589H300.474Z" fill="#FEFEFE"/>
</svg>
