<svg width="210" height="64" viewBox="0 0 210 64" fill="none" xmlns="http://www.w3.org/2000/svg">
<path d="M50.2667 42.2767C50.2667 43.0225 50.213 43.7641 50.1056 44.4934C53.2465 40.1137 55.0607 34.844 55.2509 29.4508C55.2509 29.4096 55.2385 29.3684 55.2095 29.3395C55.1806 29.3107 55.1434 29.2942 55.1021 29.2942H43.3278C43.3072 29.2942 43.2906 29.2983 43.2741 29.3066C47.4854 32.0959 50.2667 36.867 50.2667 42.2767Z" fill="#042D5F" fill-opacity="0.21"/>
<path d="M39.9762 27.642H41.3648C41.4061 27.642 41.4433 27.6255 41.4722 27.5967C41.5012 27.5679 41.5177 27.5308 41.5177 27.4896C41.4681 23.0563 40.8151 18.6478 39.5794 14.3875C39.5588 14.3092 39.4761 14.2639 39.3976 14.2804C35.8641 15.0838 32.2355 15.5164 28.6111 15.5618C28.5284 15.5618 28.4623 15.6318 28.4623 15.7142V27.4896C28.4623 27.572 28.5284 27.642 28.6152 27.642H29.3261C30.9874 27.0405 32.7852 26.7067 34.6532 26.7067C36.5212 26.7067 38.3107 27.0364 39.9762 27.642Z" fill="#042D5F" fill-opacity="0.21"/>
<path d="M28.6069 14.3666C28.6111 14.3666 28.6111 14.3666 28.6069 14.3666C32.0495 14.3172 35.4921 13.9134 38.8438 13.1635C38.8851 13.1553 38.9223 13.1265 38.943 13.0894C38.9636 13.0523 38.9678 13.007 38.9512 12.9658C36.5377 6.22935 32.7728 2.03093 28.6317 1.44175C28.5904 1.43763 28.545 1.44999 28.5119 1.47883C28.4788 1.50767 28.4582 1.54888 28.4582 1.5942V14.2142C28.4582 14.2554 28.4747 14.2925 28.5036 14.3213C28.5284 14.3501 28.5698 14.3666 28.6069 14.3666Z" fill="#042D5F" fill-opacity="0.21"/>
<path d="M41.2119 13.8684C41.1912 13.9055 41.1871 13.9467 41.1995 13.9838C42.4682 18.3758 43.1336 22.9203 43.1749 27.4896C43.1749 27.572 43.2452 27.6379 43.3278 27.6379H55.1021C55.1434 27.6379 55.1847 27.6214 55.2095 27.5926C55.2385 27.5637 55.255 27.5225 55.2509 27.4813C55.0359 21.4371 52.7836 15.5453 48.9112 10.8895C48.8657 10.8318 48.7831 10.8195 48.7211 10.8524C46.3737 12.1173 43.8775 13.1103 41.3028 13.7942C41.2656 13.8066 41.2325 13.8313 41.2119 13.8684Z" fill="#042D5F" fill-opacity="0.21"/>
<path d="M40.5878 12.1297C40.6085 12.1956 40.6663 12.2368 40.7325 12.2368C40.7449 12.2368 40.7573 12.2368 40.7697 12.2327C43.1129 11.6188 45.386 10.7453 47.5391 9.63701C47.5805 9.61641 47.6135 9.57521 47.6218 9.52576C47.6301 9.47632 47.6135 9.431 47.5805 9.39392L47.4978 9.30328C47.3862 9.18791 47.2664 9.07255 47.1506 8.9613L46.9357 8.75118C46.7787 8.59873 46.6258 8.44217 46.4646 8.29384C46.3654 8.2032 46.2662 8.11256 46.1629 8.02191C46.0968 7.96423 46.0307 7.90655 45.9645 7.84475L45.9232 7.80766C45.7455 7.6511 45.5678 7.49041 45.386 7.34209C45.233 7.21437 45.0801 7.09076 44.9231 6.96716L44.8652 6.92183C44.6669 6.76115 44.4644 6.60458 44.2618 6.45214C44.0841 6.31617 43.9023 6.18845 43.7205 6.06073C43.5138 5.9124 43.3072 5.76408 43.0964 5.62399C42.9104 5.50039 42.7245 5.37678 42.5385 5.26142C42.3236 5.12545 42.1128 4.98949 41.8938 4.86177C41.7037 4.7464 41.5094 4.63516 41.3193 4.52803C41.1003 4.40031 40.8771 4.28083 40.6498 4.15722C40.5506 4.10778 40.4556 4.05834 40.3564 4.0089C40.2572 3.95533 40.158 3.90589 40.0588 3.85645C39.8315 3.74109 39.6001 3.62984 39.3687 3.52272C39.1703 3.42796 38.9678 3.33731 38.7653 3.24667C38.6082 3.17663 38.4553 3.11483 38.2983 3.0489L38.0586 2.95002C37.8561 2.86762 37.6536 2.78522 37.4469 2.70693C37.2072 2.61629 36.9634 2.52977 36.7196 2.44736C36.5129 2.37732 36.3104 2.30316 36.0997 2.23724C35.8517 2.15895 35.6037 2.08479 35.3516 2.01063L35.3227 2.00239C35.1285 1.94471 34.9301 1.88702 34.7358 1.83758C34.6904 1.82522 34.6449 1.81286 34.5953 1.80462L34.492 1.7799C34.4259 1.76342 34.3556 1.79226 34.3226 1.85406C34.2895 1.91175 34.3019 1.98591 34.3515 2.03535C37.2279 4.82056 39.3852 8.31032 40.5878 12.1297Z" fill="#042D5F" fill-opacity="0.21"/>
<path d="M0.152912 27.642H11.9271C12.0098 27.642 12.0801 27.5761 12.0801 27.4937C12.1255 22.9245 12.7909 18.3799 14.0555 13.9879C14.0679 13.9467 14.0638 13.9055 14.0431 13.8725C14.0225 13.8354 13.9894 13.8107 13.9481 13.8025C11.3692 13.1185 8.87303 12.1256 6.52976 10.8607C6.46777 10.8277 6.38511 10.8401 6.33965 10.8978C2.46726 15.5453 0.214903 21.4371 0 27.4813C0 27.5225 0.0123983 27.5637 0.0413276 27.5926C0.0702569 27.6255 0.111584 27.642 0.152912 27.642Z" fill="#042D5F" fill-opacity="0.21"/>
<path d="M19.0975 43.7106C18.1965 43.8589 17.2997 44.0319 16.4071 44.2338C16.3657 44.2421 16.3285 44.2709 16.3079 44.308C16.2872 44.3451 16.2831 44.3904 16.2996 44.4316C18.7173 51.168 22.4822 55.3664 26.6232 55.9556C26.6315 55.9556 26.6356 55.9556 26.6439 55.9556C26.6811 55.9556 26.7142 55.9432 26.7431 55.9185C26.7761 55.8897 26.7968 55.8485 26.7968 55.8032V55.729C22.5483 53.2528 19.5686 48.8401 19.0975 43.7106Z" fill="#042D5F" fill-opacity="0.21"/>
<path d="M26.0364 29.2942H13.8902C13.8489 29.2942 13.8117 29.3107 13.7827 29.3395C13.7538 29.3684 13.7373 29.4054 13.7373 29.4466C13.7869 33.8799 14.4399 38.2926 15.6756 42.5487C15.6962 42.6146 15.7541 42.6599 15.8202 42.6599C15.8326 42.6599 15.8409 42.6599 15.8533 42.6558C16.903 42.4168 17.9651 42.215 19.0314 42.0419C19.114 36.7269 21.8788 32.0464 26.0364 29.2942Z" fill="#042D5F" fill-opacity="0.21"/>
<path d="M16.3079 13.0894C16.3285 13.1265 16.3657 13.1553 16.4071 13.1635C19.7587 13.9134 23.2013 14.3172 26.6439 14.3666C26.6439 14.3666 26.6439 14.3666 26.648 14.3666C26.6894 14.3666 26.7266 14.3501 26.7555 14.3213C26.7844 14.2925 26.801 14.2554 26.801 14.2142V1.5942C26.801 1.54888 26.7803 1.50767 26.7472 1.47883C26.7142 1.44999 26.6687 1.43763 26.6274 1.44175C22.4781 2.03093 18.7173 6.22935 16.2996 12.9658C16.2831 13.007 16.2872 13.0523 16.3079 13.0894Z" fill="#042D5F" fill-opacity="0.21"/>
<path d="M15.8574 14.2763C15.7789 14.2557 15.7003 14.3051 15.6756 14.3834C14.4399 18.6436 13.7869 23.0522 13.7373 27.4855C13.7373 27.5267 13.7538 27.5637 13.7827 27.5926C13.8117 27.6214 13.8489 27.6379 13.8902 27.6379H26.6439C26.7266 27.6379 26.7968 27.572 26.7968 27.4855V15.7101C26.7968 15.6277 26.7307 15.5576 26.648 15.5576C23.0236 15.5123 19.3909 15.0797 15.8574 14.2763Z" fill="#042D5F" fill-opacity="0.21"/>
<path d="M7.71587 10.094C9.8649 11.2024 12.1379 12.0717 14.4771 12.6897C14.4895 12.6939 14.5019 12.6939 14.5143 12.6939C14.5804 12.6939 14.6382 12.6527 14.6589 12.5867C15.8615 8.77148 18.0147 5.28172 20.8911 2.49651C20.9407 2.44707 20.9531 2.3729 20.9159 2.31522C20.8828 2.25342 20.8126 2.22458 20.7465 2.24106L20.6349 2.2699C20.5935 2.27814 20.5481 2.2905 20.5068 2.30286C20.3456 2.34406 20.1844 2.3935 20.0274 2.43883L19.8868 2.48003C19.6389 2.55007 19.395 2.62423 19.1429 2.70251C18.9363 2.76844 18.7338 2.83848 18.5189 2.91264L18.4569 2.93324C18.2379 3.01152 18.0188 3.08569 17.7998 3.16809C17.5932 3.24637 17.3907 3.32878 17.184 3.41118L16.4856 3.70371C16.2831 3.79435 16.0806 3.88499 15.8781 3.97976C15.6508 4.08688 15.4235 4.194 15.1962 4.30937C14.9978 4.40825 14.7994 4.51126 14.6052 4.61838C14.382 4.73786 14.163 4.85735 13.9481 4.98095C13.7497 5.0922 13.5555 5.20344 13.3653 5.3188C13.1711 5.43417 12.981 5.55365 12.7909 5.67313L12.7289 5.71434C12.5388 5.83382 12.3487 5.95742 12.1627 6.08103C11.9561 6.22111 11.7494 6.36532 11.5428 6.51364C11.361 6.64549 11.1791 6.77321 10.9973 6.90918C10.8733 6.99982 10.7534 7.09458 10.6336 7.18935C10.5551 7.25115 10.4807 7.31295 10.398 7.37475L10.3154 7.44067C10.1666 7.56016 10.0178 7.67552 9.8773 7.79501C9.70786 7.93509 9.54255 8.0793 9.38137 8.2235L9.1582 8.42127C9.03835 8.52839 8.91437 8.63551 8.79865 8.74676C8.63747 8.8992 8.47629 9.05165 8.31925 9.20821L8.09608 9.42658C7.9845 9.53371 7.87291 9.64083 7.76546 9.75619L7.72827 9.79739C7.71587 9.81388 7.69934 9.83036 7.6828 9.84684C7.64974 9.8798 7.63321 9.92924 7.64148 9.97868C7.64561 10.0281 7.67454 10.0693 7.71587 10.094Z" fill="#042D5F" fill-opacity="0.21"/>
<path d="M14.6672 44.8065C14.6424 44.7282 14.5638 44.6829 14.4812 44.7035C12.142 45.3174 9.86903 46.1909 7.72 47.2992C7.67867 47.3198 7.64561 47.361 7.63734 47.4104C7.62907 47.4599 7.64561 47.5052 7.67867 47.5423L7.76132 47.6288C7.90597 47.7854 8.06301 47.9378 8.22419 48.0944L8.33991 47.9955L8.23246 48.1026L8.33578 48.2056C8.48455 48.3498 8.63333 48.4982 8.78625 48.6382C8.88543 48.7289 8.98462 48.8195 9.08794 48.906L9.31524 49.1079C9.49708 49.2686 9.67892 49.4334 9.86903 49.5859C10.0385 49.726 10.2079 49.8619 10.3856 50.0061C10.584 50.1668 10.7824 50.3275 10.989 50.4799C11.1089 50.5665 11.2246 50.653 11.3444 50.7395L11.5263 50.8714C11.7329 51.0197 11.9395 51.168 12.1503 51.3081C12.3363 51.4317 12.5223 51.5512 12.7082 51.6707C12.9231 51.8066 13.1339 51.9426 13.3529 52.0703C13.5431 52.1857 13.7373 52.2969 13.9274 52.4082C14.1464 52.5359 14.3696 52.6554 14.5969 52.779C14.692 52.8284 14.7911 52.8779 14.8903 52.9273C14.9895 52.9809 15.0887 53.0303 15.1879 53.0798C15.4152 53.1951 15.6466 53.3022 15.8781 53.4135C16.0764 53.5083 16.2748 53.5989 16.4814 53.6854C16.6426 53.7555 16.7997 53.8214 16.9608 53.8873L17.184 53.9779C17.3865 54.0603 17.589 54.1428 17.7957 54.221C18.0354 54.3117 18.2792 54.3982 18.523 54.4806L18.5685 54.4971C18.7586 54.563 18.9487 54.6289 19.1429 54.6907C19.3909 54.769 19.6389 54.8432 19.891 54.9173L19.9695 54.9421C20.1472 54.9956 20.329 55.0451 20.5068 55.0945C20.5522 55.1069 20.6018 55.1192 20.6473 55.1275L20.7506 55.1522C20.763 55.1563 20.7754 55.1563 20.7878 55.1563C20.8415 55.1563 20.8911 55.1275 20.92 55.078C20.9531 55.0162 20.9448 54.9421 20.8952 54.8967C18.023 52.1156 15.8657 48.6259 14.6672 44.8065Z" fill="#042D5F" fill-opacity="0.21"/>
<path d="M14.0431 43.0678C14.0638 43.0307 14.0679 42.9895 14.0555 42.9525C12.7868 38.5604 12.1214 34.0159 12.0801 29.4466C12.0801 29.3642 12.0098 29.2942 11.9271 29.2942H0.152912C0.111584 29.2942 0.0702569 29.3107 0.0454604 29.3395C0.0123983 29.3725 0 29.4096 0 29.4508C0.214903 35.495 2.46726 41.3909 6.33965 46.0426C6.36858 46.0796 6.41404 46.0961 6.45537 46.0961C6.48017 46.0961 6.50496 46.092 6.52976 46.0796C8.87716 44.8148 11.3734 43.8218 13.9481 43.1379C13.9894 43.1296 14.0225 43.1008 14.0431 43.0678Z" fill="#042D5F" fill-opacity="0.21"/>
<path d="M55.407 59.9647C55.7418 60.2984 55.7376 60.8381 55.4029 61.1719L53.4233 63.1454C53.0885 63.4832 52.5471 63.4832 52.2124 63.1454L43.203 54.1676C40.3803 56.2277 36.8096 57.3278 32.9661 56.9157C26.1471 56.1824 20.6712 50.7149 19.9686 43.9167C19.0098 34.634 26.8124 26.8593 36.1153 27.8193C42.9343 28.5197 48.4226 33.9831 49.15 40.7772C49.5633 44.6089 48.4598 48.1687 46.3935 50.9786C46.3976 50.9827 53.2952 57.8593 55.407 59.9647ZM44.7238 42.3675C44.7238 36.7806 40.1654 32.2402 34.5655 32.2402C28.9656 32.2402 24.4072 36.7847 24.4072 42.3675C24.4072 47.9503 28.9656 52.4948 34.5655 52.4948C40.1654 52.4948 44.7238 47.9544 44.7238 42.3675Z" fill="#042D5F"/>
<path d="M34.5665 52.4946C40.1768 52.4946 44.7248 47.9604 44.7248 42.3673C44.7248 36.7741 40.1768 32.24 34.5665 32.24C28.9562 32.24 24.4082 36.7741 24.4082 42.3673C24.4082 47.9604 28.9562 52.4946 34.5665 52.4946Z" fill="#92DAFA"/>
<path d="M71.2596 16.6868C71.9993 16.6868 72.6275 16.5632 73.1524 16.316C73.6772 16.0688 74.107 15.735 74.4418 15.3148C74.7765 14.8945 75.0245 14.4166 75.1898 13.8768C75.351 13.3371 75.4337 12.7685 75.4337 12.1711V11.8621H77.5951V12.1711C77.5951 13.0775 77.4587 13.9304 77.1818 14.7256C76.9091 15.5208 76.504 16.213 75.9709 16.8063C75.4378 17.3954 74.7766 17.861 73.9872 18.1906C73.1978 18.5244 72.2886 18.6933 71.2554 18.6933C69.2635 18.6933 67.7095 18.067 66.5937 16.8186C65.4778 15.5702 64.9199 13.745 64.9199 11.3512V7.34642C64.9199 5.01854 65.4778 3.21392 66.5937 1.92844C67.7178 0.642955 69.2676 0.000213623 71.2596 0.000213623C72.2886 0.000213623 73.1978 0.169139 73.9913 0.502871C74.7807 0.836602 75.4419 1.29806 75.9751 1.88724C76.5082 2.47642 76.9091 3.17272 77.1859 3.96791C77.4587 4.76309 77.5992 5.61596 77.5992 6.52239V6.8314H75.4378V6.52239C75.4213 5.94145 75.3303 5.377 75.1692 4.82902C75.0039 4.28104 74.7559 3.79898 74.4211 3.37873C74.0864 2.95847 73.6607 2.62474 73.1482 2.37753C72.6317 2.13033 72.0076 2.00672 71.2678 2.00672C69.8751 2.00672 68.8336 2.5135 68.1393 3.52293C67.445 4.53237 67.0979 5.85905 67.0979 7.50299V11.1988C67.0979 12.9622 67.445 14.3177 68.1393 15.2695C68.8295 16.213 69.871 16.6868 71.2596 16.6868Z" fill="#0D99C6"/>
<path d="M81.3242 16.4847H85.8041V7.44509H81.7871V5.59515H87.8126V16.4806H91.9867V18.3305H81.3242V16.4847ZM84.9776 1.79638C84.9776 1.30196 85.1553 0.87759 85.5066 0.527378C85.8579 0.177166 86.2835 0 86.7795 0C87.2754 0 87.7011 0.177166 88.0523 0.527378C88.4036 0.87759 88.5813 1.30196 88.5813 1.79638C88.5813 2.29492 88.4036 2.71517 88.0523 3.06538C87.7011 3.4156 87.2754 3.59276 86.7795 3.59276C86.2794 3.59276 85.8579 3.4156 85.5066 3.06538C85.1553 2.71929 84.9776 2.29492 84.9776 1.79638Z" fill="#0D99C6"/>
<path d="M102.348 18.3304H98.3809L93.9258 5.595H96.2939L100.208 17.4033H100.518L104.431 5.595H106.799L102.348 18.3304Z" fill="#0D99C6"/>
<path d="M110.498 16.4847H114.978V7.44509H110.961V5.59515H116.986V16.4806H121.161V18.3305H110.498V16.4847ZM114.156 1.79638C114.156 1.30196 114.333 0.87759 114.685 0.527378C115.036 0.177166 115.461 0 115.957 0C116.453 0 116.879 0.177166 117.23 0.527378C117.582 0.87759 117.759 1.30196 117.759 1.79638C117.759 2.29492 117.582 2.71517 117.23 3.06538C116.879 3.4156 116.453 3.59276 115.957 3.59276C115.457 3.59276 115.036 3.4156 114.685 3.06538C114.333 2.71929 114.156 2.29492 114.156 1.79638Z" fill="#0D99C6"/>
<path d="M137.194 13.8146C137.058 14.515 136.823 15.166 136.488 15.7676C136.153 16.365 135.727 16.8841 135.215 17.3209C134.698 17.7576 134.099 18.0954 133.413 18.3344C132.727 18.5734 131.962 18.6929 131.119 18.6929C130.227 18.6929 129.379 18.5487 128.582 18.2561C127.784 17.9636 127.086 17.5433 126.482 16.9871C125.883 16.4309 125.404 15.7511 125.052 14.9476C124.701 14.1442 124.523 13.2172 124.523 12.1748V11.8658C124.523 10.8399 124.701 9.91284 125.052 9.09293C125.404 8.27302 125.879 7.57672 126.482 7.01226C127.082 6.4478 127.784 6.01107 128.582 5.70206C129.379 5.39305 130.227 5.2406 131.119 5.2406C131.925 5.2406 132.673 5.36008 133.359 5.59905C134.045 5.83802 134.653 6.17587 135.174 6.61261C135.698 7.04934 136.128 7.56848 136.463 8.1659C136.798 8.76744 137.025 9.4143 137.145 10.1188L135.136 10.5803C135.087 10.1353 134.959 9.70271 134.764 9.28246C134.566 8.8622 134.302 8.49551 133.967 8.17826C133.632 7.86101 133.223 7.60968 132.744 7.42015C132.264 7.23063 131.706 7.13586 131.07 7.13586C130.45 7.13586 129.871 7.25123 129.33 7.48196C128.788 7.71268 128.313 8.03818 127.9 8.45843C127.487 8.87868 127.164 9.37722 126.933 9.96228C126.701 10.5432 126.586 11.1777 126.586 11.8617V12.1707C126.586 12.8917 126.701 13.5344 126.933 14.1113C127.164 14.6881 127.487 15.1701 127.9 15.5616C128.313 15.9571 128.793 16.2579 129.342 16.4721C129.892 16.6863 130.483 16.7935 131.119 16.7935C131.756 16.7935 132.31 16.6946 132.781 16.4968C133.252 16.2991 133.657 16.0436 133.992 15.7264C134.326 15.4091 134.591 15.0465 134.789 14.6345C134.988 14.2225 135.12 13.794 135.19 13.349L137.194 13.8146Z" fill="#0D99C6"/>
<path d="M149.635 0.358215H162.306V2.3606H157.053V18.3303H154.892V2.3606H149.639V0.358215H149.635Z" fill="#0D99C6"/>
<path d="M165.208 12.5786C165.258 13.8435 165.654 14.8653 166.394 15.6358C167.134 16.4062 168.163 16.7894 169.485 16.7894C170.085 16.7894 170.609 16.7194 171.056 16.5834C171.502 16.4474 171.882 16.2579 172.201 16.0189C172.519 15.78 172.775 15.4998 172.973 15.1826C173.172 14.8653 173.329 14.5275 173.449 14.169L175.354 14.684C174.994 15.8665 174.329 16.8265 173.358 17.5722C172.387 18.318 171.081 18.6888 169.432 18.6888C168.522 18.6888 167.683 18.5322 166.919 18.215C166.154 17.8977 165.497 17.4486 164.948 16.8677C164.398 16.2868 163.968 15.5946 163.658 14.787C163.348 13.9836 163.195 13.0936 163.195 12.1172V11.4992C163.195 10.6092 163.352 9.78106 163.671 9.01059C163.989 8.24012 164.431 7.57678 164.997 7.02056C165.563 6.46434 166.229 6.02761 166.993 5.71036C167.758 5.39311 168.584 5.23654 169.477 5.23654C170.523 5.23654 171.432 5.43019 172.192 5.81336C172.957 6.20065 173.581 6.67447 174.073 7.23893C174.56 7.80339 174.924 8.42141 175.156 9.08887C175.387 9.75634 175.503 10.3702 175.503 10.9388V12.5828H165.208V12.5786ZM169.481 7.13593C168.915 7.13593 168.386 7.22657 167.898 7.40374C167.411 7.58502 166.981 7.83635 166.609 8.16184C166.241 8.48733 165.939 8.86639 165.708 9.30312C165.477 9.73985 165.328 10.2137 165.258 10.7287H173.498C173.465 10.1807 173.329 9.68629 173.097 9.24132C172.866 8.79634 172.564 8.42141 172.196 8.1124C171.829 7.80339 171.407 7.56442 170.936 7.3955C170.465 7.22245 169.977 7.13593 169.481 7.13593Z" fill="#0D99C6"/>
<path d="M191.786 13.8146C191.65 14.515 191.414 15.166 191.08 15.7676C190.745 16.365 190.319 16.8841 189.807 17.3209C189.29 17.7576 188.691 18.0954 188.005 18.3344C187.319 18.5734 186.554 18.6929 185.711 18.6929C184.818 18.6929 183.971 18.5487 183.174 18.2561C182.376 17.9636 181.678 17.5433 181.074 16.9871C180.475 16.4309 179.996 15.7511 179.644 14.9476C179.293 14.1442 179.115 13.2172 179.115 12.1748V11.8658C179.115 10.8399 179.293 9.91284 179.644 9.09293C179.996 8.27302 180.471 7.57672 181.074 7.01226C181.673 6.4478 182.376 6.01107 183.174 5.70206C183.971 5.39305 184.818 5.2406 185.711 5.2406C186.517 5.2406 187.265 5.36008 187.951 5.59905C188.637 5.83802 189.245 6.17587 189.765 6.61261C190.29 7.04934 190.72 7.56848 191.055 8.1659C191.39 8.76744 191.617 9.4143 191.737 10.1188L189.728 10.5803C189.679 10.1353 189.55 9.70271 189.356 9.28246C189.158 8.8622 188.893 8.49551 188.559 8.17826C188.224 7.86101 187.815 7.60968 187.335 7.42015C186.856 7.23063 186.298 7.13586 185.662 7.13586C185.042 7.13586 184.463 7.25123 183.922 7.48196C183.38 7.71268 182.905 8.03818 182.492 8.45843C182.078 8.87868 181.756 9.37722 181.525 9.96228C181.293 10.5432 181.177 11.1777 181.177 11.8617V12.1707C181.177 12.8917 181.293 13.5344 181.525 14.1113C181.756 14.684 182.078 15.1701 182.492 15.5616C182.905 15.9571 183.384 16.2579 183.934 16.4721C184.484 16.6863 185.075 16.7935 185.711 16.7935C186.348 16.7935 186.901 16.6946 187.372 16.4968C187.844 16.2991 188.249 16.0436 188.583 15.7264C188.918 15.4091 189.183 15.0465 189.381 14.6345C189.579 14.2225 189.712 13.794 189.782 13.349L191.786 13.8146Z" fill="#0D99C6"/>
<path d="M197.862 18.3303H195.854V0.358215H197.862V7.90631H198.172C198.569 7.0864 199.123 6.43542 199.833 5.95336C200.544 5.47543 201.416 5.23234 202.445 5.23234C203.838 5.23234 204.966 5.68968 205.83 6.60435C206.698 7.51902 207.132 8.89514 207.132 10.7245V18.3261H205.123V11.1406C205.123 9.80569 204.822 8.8045 204.222 8.13704C203.623 7.46958 202.805 7.13584 201.776 7.13584C200.557 7.13584 199.598 7.55198 198.903 8.38013C198.209 9.21239 197.862 10.3166 197.862 11.7051V18.3303Z" fill="#0D99C6"/>
<path d="M76.5498 63.2234H67.2305V27.5759H76.5498V63.2234Z" fill="#042D5F"/>
<path d="M108.065 38.1648C109.764 39.8211 110.611 42.1819 110.611 45.2391V63.2235H101.399V47.7771C101.399 45.9395 101.064 44.6375 100.395 43.8629C99.7253 43.0884 98.7789 42.7011 97.5515 42.7011C96.105 42.7011 94.9313 43.2161 94.0304 44.242C93.1253 45.2679 92.6748 46.8418 92.6748 48.9678V63.2276H83.4629V36.2201H91.6995L91.9722 41.4073C92.8401 39.4997 94.0676 38.07 95.6545 37.1142C97.2415 36.1624 99.1013 35.6845 101.234 35.6845C104.089 35.6803 106.367 36.5085 108.065 38.1648Z" fill="#042D5F"/>
<path d="M144.24 27.6624V63.2233H135.949L135.623 58.0938C134.829 59.8572 133.664 61.2457 132.127 62.251C130.589 63.2604 128.812 63.7631 126.791 63.7631C123.287 63.7631 120.551 62.5394 118.584 60.092C116.616 57.6447 115.633 54.225 115.633 49.8288C115.633 45.3625 116.625 41.8893 118.613 39.4048C120.6 36.9204 123.345 35.6761 126.849 35.6761C128.763 35.6761 130.407 36.1252 131.779 37.0275C133.152 37.9298 134.234 39.17 135.032 40.7521V27.6624H144.24ZM133.54 55.4198C134.424 54.3568 134.92 52.82 135.028 50.8011V48.6422C134.92 46.6604 134.424 45.1318 133.54 44.0523C132.656 42.9729 131.474 42.4331 129.99 42.4331C128.366 42.4331 127.109 43.0264 126.225 44.2171C125.341 45.4037 124.898 47.2413 124.898 49.7258C124.898 52.2102 125.341 54.0478 126.225 55.2344C127.109 56.421 128.366 57.0184 129.99 57.0184C131.47 57.0143 132.652 56.4828 133.54 55.4198Z" fill="#042D5F"/>
<path d="M176.616 52.367H158.142C158.432 54.0603 159.056 55.3005 160.01 56.0916C160.965 56.8826 162.242 57.2782 163.829 57.2782C165.164 57.2782 166.259 57.0268 167.106 56.5201C167.953 56.0174 168.524 55.2799 168.813 54.3075L176.289 56.6849C175.529 58.988 174.058 60.7432 171.875 61.9504C169.689 63.1576 167.007 63.7591 163.829 63.7591C159.097 63.7591 155.477 62.5355 152.968 60.0881C150.455 57.6407 149.203 54.1839 149.203 49.7177C149.203 45.2515 150.431 41.7947 152.885 39.3473C155.34 36.9 158.828 35.6763 163.341 35.6763C167.71 35.6763 171.061 36.8752 173.392 39.269C175.723 41.6628 176.888 45.0207 176.888 49.3428C176.888 50.5665 176.798 51.5759 176.616 52.367ZM158.089 47.3981H168.276C167.842 43.8712 166.18 42.1037 163.292 42.1037C160.362 42.1078 158.63 43.8712 158.089 47.3981Z" fill="#042D5F"/>
<path d="M198.607 63.2234L193.297 53.8254L187.879 63.2234H177.691L187.445 49.5569L178.072 36.2159H188.528L193.512 45.2349L198.603 36.2159H208.786L199.359 49.6105L209.001 63.2234H198.607Z" fill="#042D5F"/>
</svg>
