<svg width="31" height="31" viewBox="0 0 31 31" fill="none" xmlns="http://www.w3.org/2000/svg">
<path fill-rule="evenodd" clip-rule="evenodd" d="M31 15.5943C31 6.98245 24.0598 0 15.5 0C6.94024 0 0 6.98245 0 15.5943C0 23.3771 5.66733 29.8288 13.0784 31V20.103H9.14174V15.5943H13.0784V12.1578C13.0784 8.24991 15.3932 6.08983 18.9331 6.08983C20.6288 6.08983 22.4032 6.39464 22.4032 6.39464V10.2324H20.4479C18.5233 10.2324 17.9216 11.4342 17.9216 12.6688V15.5941H22.22L21.5334 20.1029H17.9215V30.9999C25.3326 29.8309 30.9999 23.3791 30.9999 15.5941L31 15.5943Z" fill="white"/>
</svg>
