<svg width="96" height="96" viewBox="0 0 96 96" fill="none" xmlns="http://www.w3.org/2000/svg">
<path fill-rule="evenodd" clip-rule="evenodd" d="M47.9956 0C21.4931 0 0 22.034 0 49.2163C0 70.9602 13.7522 89.405 32.8261 95.9128C35.2276 96.366 36.1028 94.8463 36.1028 93.5411C36.1028 92.3719 36.0615 89.2781 36.0379 85.1722C22.6865 88.1451 19.8695 78.5738 19.8695 78.5738C17.686 72.8878 14.5389 71.3741 14.5389 71.3741C10.1808 68.3227 14.869 68.3831 14.869 68.3831C19.6868 68.7305 22.2209 73.4558 22.2209 73.4558C26.5025 80.9757 33.4566 78.8034 36.1912 77.5435C36.6273 74.3652 37.8678 72.1959 39.238 70.9663C28.5799 69.7245 17.3736 65.5008 17.3736 46.6421C17.3736 41.2704 19.2448 36.8744 22.3152 33.4362C21.8202 32.1915 20.173 27.1853 22.7867 20.4116C22.7867 20.4116 26.8148 19.0883 35.9849 25.4571C39.8126 24.3634 43.9203 23.8196 48.0015 23.7984C52.0797 23.8196 56.1844 24.3634 60.0181 25.4571C69.1822 19.0883 73.2045 20.4116 73.2045 20.4116C75.8241 27.1853 74.1769 32.1915 73.6848 33.4362C76.7611 36.8744 78.6175 41.2704 78.6175 46.6421C78.6175 65.5492 67.3936 69.7094 56.703 70.927C58.4239 72.4467 59.9591 75.4498 59.9591 80.0391C59.9591 86.6194 59.9002 91.9277 59.9002 93.5411C59.9002 94.8584 60.7665 96.3901 63.2005 95.9098C82.2596 89.3869 96 70.9542 96 49.2163C96 22.034 74.5069 0 47.9956 0Z" fill="#FEFEFE"/>
</svg>
