<svg width="33" height="32" viewBox="0 0 33 32" fill="none" xmlns="http://www.w3.org/2000/svg">
<path fill-rule="evenodd" clip-rule="evenodd" d="M16.4985 0C7.38826 0 0 7.34467 0 16.4054C0 23.6534 4.72731 29.8017 11.284 31.9709C12.1095 32.122 12.4103 31.6154 12.4103 31.1804C12.4103 30.7906 12.3961 29.7594 12.388 28.3907C7.79849 29.3817 6.83014 26.1913 6.83014 26.1913C6.07956 24.2959 4.99776 23.7914 4.99776 23.7914C3.49965 22.7742 5.11121 22.7944 5.11121 22.7944C6.76733 22.9102 7.63845 24.4853 7.63845 24.4853C9.11022 26.9919 11.5007 26.2678 12.4407 25.8479C12.5906 24.7884 13.0171 24.0653 13.4881 23.6554C9.82434 23.2415 5.97219 21.8336 5.97219 15.5474C5.97219 13.7568 6.6154 12.2915 7.67086 11.1454C7.50069 10.7305 6.93447 9.06175 7.83293 6.80387C7.83293 6.80387 9.21759 6.36276 12.3698 8.4857C13.6856 8.12114 15.0976 7.93986 16.5005 7.93281C17.9024 7.93986 19.3134 8.12114 20.6312 8.4857C23.7814 6.36276 25.164 6.80387 25.164 6.80387C26.0645 9.06175 25.4983 10.7305 25.3291 11.1454C26.3866 12.2915 27.0248 13.7568 27.0248 15.5474C27.0248 21.8497 23.1665 23.2365 19.4917 23.6423C20.0832 24.1489 20.6109 25.1499 20.6109 26.6797C20.6109 28.8731 20.5907 30.6426 20.5907 31.1804C20.5907 31.6195 20.8885 32.13 21.7252 31.9699C28.2767 29.7956 33 23.6514 33 16.4054C33 7.34467 25.6117 0 16.4985 0Z" fill="#FFFFFE"/>
</svg>
