<svg width="120" height="120" viewBox="0 0 120 120" fill="none" xmlns="http://www.w3.org/2000/svg">
<g clip-path="url(#clip0)">
<path d="M107.907 40.2244C107.682 35.1235 106.857 31.6167 105.676 28.5781C104.457 25.3526 102.581 22.4648 100.124 20.0642C97.7235 17.6262 94.8167 15.7318 91.6286 14.5319C88.5723 13.3502 85.0839 12.5254 79.983 12.3005C74.8441 12.0565 73.2127 12.0001 60.1789 12.0001C47.1451 12.0001 45.5137 12.0565 40.3938 12.2814C35.2929 12.5063 31.7861 13.3319 28.7482 14.5128C25.522 15.7318 22.6342 17.6072 20.2336 20.0642C17.7956 22.4648 15.9019 25.3716 14.7013 28.5598C13.5196 31.6167 12.6948 35.1045 12.4699 40.2053C12.2259 45.3443 12.1695 46.9757 12.1695 60.0095C12.1695 73.0433 12.2259 74.6747 12.4508 79.7946C12.6757 84.8955 13.5013 88.4023 14.683 91.4409C15.9019 94.6664 17.7956 97.5542 20.2336 99.9548C22.6342 102.393 25.541 104.287 28.7291 105.487C31.7861 106.669 35.2739 107.494 40.3755 107.719C45.4946 107.944 47.1268 108 60.1606 108C73.1943 108 74.8258 107.944 79.9457 107.719C85.0465 107.494 88.5533 106.669 91.5912 105.487C98.0429 102.993 103.144 97.8919 105.638 91.4409C106.819 88.3839 107.645 84.8955 107.87 79.7946C108.094 74.6747 108.151 73.0433 108.151 60.0095C108.151 46.9757 108.132 45.3443 107.907 40.2244ZM99.2619 79.4195C99.0553 84.108 98.2678 86.6397 97.6115 88.3275C95.9984 92.5097 92.6791 95.829 88.4969 97.4421C86.8091 98.0985 84.259 98.886 79.5889 99.0918C74.5254 99.3175 73.0068 99.3731 60.1979 99.3731C47.389 99.3731 45.8514 99.3175 40.8062 99.0918C36.1178 98.886 33.5861 98.0985 31.8982 97.4421C29.817 96.6729 27.9226 95.4539 26.3849 93.8599C24.7909 92.3032 23.5719 90.4278 22.8027 88.3466C22.1463 86.6587 21.3588 84.108 21.153 79.4386C20.9273 74.3751 20.8717 72.8558 20.8717 60.0469C20.8717 47.238 20.9273 45.7003 21.153 40.6559C21.3588 35.9674 22.1463 33.4357 22.8027 31.7479C23.5719 29.6659 24.7909 27.7722 26.404 26.2339C27.96 24.6398 29.8353 23.4208 31.9173 22.6523C33.6051 21.996 36.1559 21.2085 40.8253 21.0019C45.8887 20.777 47.4081 20.7206 60.2162 20.7206C73.0442 20.7206 74.5628 20.777 79.6079 21.0019C84.2964 21.2085 86.8281 21.996 88.5159 22.6523C90.5972 23.4208 92.4916 24.6398 94.0292 26.2339C95.6233 27.7906 96.8423 29.6659 97.6115 31.7479C98.2678 33.4357 99.0553 35.9858 99.2619 40.6559C99.4868 45.7194 99.5432 47.238 99.5432 60.0469C99.5432 72.8558 99.4868 74.3561 99.2619 79.4195Z" fill="#FEFEFE"/>
<path d="M60.1773 35.3483C46.5626 35.3483 35.5163 46.3939 35.5163 60.0093C35.5163 73.6248 46.5626 84.6704 60.1773 84.6704C73.7928 84.6704 84.8384 73.6248 84.8384 60.0093C84.8384 46.3939 73.7928 35.3483 60.1773 35.3483ZM60.1773 76.0064C51.3448 76.0064 44.1803 68.8426 44.1803 60.0093C44.1803 51.1761 51.3448 44.0123 60.1773 44.0123C69.0106 44.0123 76.1744 51.1761 76.1744 60.0093C76.1744 68.8426 69.0106 76.0064 60.1773 76.0064Z" fill="#FEFEFE"/>
<path d="M91.5715 34.373C91.5715 37.5523 88.9936 40.1302 85.8135 40.1302C82.6342 40.1302 80.0563 37.5523 80.0563 34.373C80.0563 31.1929 82.6342 28.6157 85.8135 28.6157C88.9936 28.6157 91.5715 31.1929 91.5715 34.373Z" fill="#FEFEFE"/>
</g>
<defs>
<clipPath id="clip0">
<rect width="96" height="96" fill="white" transform="translate(12 12)"/>
</clipPath>
</defs>
</svg>
