<svg width="31" height="31" viewBox="0 0 31 31" fill="none" xmlns="http://www.w3.org/2000/svg">
<g clip-path="url(#clip0)">
<path d="M30.9699 9.11409C30.8973 7.46694 30.6309 6.33454 30.2493 5.3533C29.8557 4.31173 29.2501 3.37922 28.4567 2.60402C27.6815 1.81676 26.7428 1.20502 25.7133 0.817543C24.7264 0.435975 23.5999 0.169612 21.9528 0.0969885C20.2933 0.0182149 19.7665 0 15.5577 0C11.3489 0 10.8221 0.0182149 9.16877 0.0908381C7.52162 0.163461 6.38922 0.430061 5.40822 0.811392C4.36642 1.20502 3.43391 1.81061 2.65871 2.60402C1.87145 3.37922 1.25995 4.31788 0.87223 5.34738C0.490663 6.33454 0.224299 7.46079 0.151676 9.10793C0.0729024 10.7674 0.0546875 11.2942 0.0546875 15.503C0.0546875 19.7119 0.0729024 20.2387 0.145526 21.892C0.218149 23.5391 0.484749 24.6715 0.866316 25.6528C1.25995 26.6943 1.87145 27.6268 2.65871 28.402C3.43391 29.1893 4.37257 29.801 5.40207 30.1885C6.38922 30.5701 7.51547 30.8364 9.16285 30.9091C10.8159 30.9819 11.343 30.9999 15.5518 30.9999C19.7606 30.9999 20.2874 30.9819 21.9407 30.9091C23.5879 30.8364 24.7203 30.5701 25.7013 30.1885C27.7846 29.383 29.4318 27.7359 30.2373 25.6528C30.6186 24.6656 30.8852 23.5391 30.9578 21.892C31.0304 20.2387 31.0487 19.7119 31.0487 15.503C31.0487 11.2942 31.0425 10.7674 30.9699 9.11409ZM28.1783 21.7709C28.1116 23.2848 27.8573 24.1024 27.6453 24.6474C27.1244 25.9979 26.0526 27.0697 24.7021 27.5906C24.157 27.8026 23.3336 28.0569 21.8255 28.1234C20.1904 28.1962 19.7001 28.2142 15.5639 28.2142C11.4277 28.2142 10.9311 28.1962 9.30195 28.1234C7.78798 28.0569 6.97044 27.8026 6.42541 27.5906C5.75335 27.3423 5.14162 26.9486 4.64508 26.4339C4.13033 25.9312 3.7367 25.3256 3.48832 24.6535C3.27636 24.1085 3.02206 23.2848 2.95559 21.777C2.88273 20.1419 2.86475 19.6513 2.86475 15.5151C2.86475 11.3789 2.88273 10.8824 2.95559 9.25342C3.02206 7.73945 3.27636 6.92191 3.48832 6.37688C3.7367 5.70458 4.13033 5.09308 4.65123 4.59631C5.15368 4.08156 5.75927 3.68793 6.43156 3.43978C6.97659 3.22783 7.80028 2.97353 9.3081 2.90682C10.9432 2.83419 11.4338 2.81598 15.5698 2.81598C19.7121 2.81598 20.2025 2.83419 21.8317 2.90682C23.3456 2.97353 24.1632 3.22783 24.7082 3.43978C25.3803 3.68793 25.992 4.08156 26.4885 4.59631C27.0033 5.099 27.3969 5.70458 27.6453 6.37688C27.8573 6.92191 28.1116 7.74536 28.1783 9.25342C28.2509 10.8885 28.2691 11.3789 28.2691 15.5151C28.2691 19.6513 28.2509 20.1358 28.1783 21.7709Z" fill="white"/>
<path d="M15.5577 7.53956C11.1613 7.53956 7.59424 11.1064 7.59424 15.503C7.59424 19.8997 11.1613 23.4665 15.5577 23.4665C19.9544 23.4665 23.5212 19.8997 23.5212 15.503C23.5212 11.1064 19.9544 7.53956 15.5577 7.53956ZM15.5577 20.6687C12.7055 20.6687 10.392 18.3554 10.392 15.503C10.392 12.6506 12.7055 10.3373 15.5577 10.3373C18.4101 10.3373 20.7234 12.6506 20.7234 15.503C20.7234 18.3554 18.4101 20.6687 15.5577 20.6687Z" fill="white"/>
<path d="M25.695 7.2247C25.695 8.25136 24.8626 9.08381 23.8357 9.08381C22.809 9.08381 21.9766 8.25136 21.9766 7.2247C21.9766 6.19781 22.809 5.3656 23.8357 5.3656C24.8626 5.3656 25.695 6.19781 25.695 7.2247Z" fill="white"/>
</g>
<defs>
<clipPath id="clip0">
<rect width="31" height="31" fill="white"/>
</clipPath>
</defs>
</svg>
