<svg width="17" height="17" viewBox="0 0 17 17" fill="none" xmlns="http://www.w3.org/2000/svg">
<g clip-path="url(#clip0)">
<path d="M10.3732 6.6262C10.1718 6.42363 9.94855 6.24407 9.70751 6.09079C9.06906 5.68197 8.32684 5.46473 7.56871 5.46473C6.51646 5.46277 5.50697 5.88086 4.76422 6.6262L1.16087 10.2324C0.419375 10.9753 0.00261789 11.9819 0.00195395 13.0315C0.000559666 15.2218 1.77501 16.9986 3.96536 17C5.01599 17.0036 6.02455 16.5875 6.76704 15.8442L9.7415 12.8697C9.79555 12.8161 9.82572 12.743 9.82529 12.667C9.82439 12.5105 9.69682 12.3844 9.54036 12.3853H9.42706C8.80561 12.3875 8.1897 12.2682 7.61406 12.0341C7.508 11.9904 7.3861 12.015 7.30529 12.0964L5.1665 14.238C4.50236 14.9021 3.42558 14.9021 2.76143 14.238C2.09729 13.5738 2.09729 12.4971 2.76143 11.8329L6.37896 8.21824C7.04257 7.55545 8.1176 7.55545 8.78121 8.21824C9.22844 8.63914 9.92604 8.63914 10.3732 8.21824C10.5657 8.02566 10.6823 7.77024 10.7019 7.49869C10.7225 7.17418 10.6029 6.85639 10.3732 6.6262Z" fill="#6D7278"/>
<path d="M15.8372 1.16166C14.2883 -0.38722 11.7771 -0.38722 10.2282 1.16166L7.25654 4.13045C7.17494 4.21245 7.1514 4.33577 7.19705 4.44207C7.24216 4.54867 7.3476 4.61709 7.46332 4.61486H7.56812C8.18885 4.61373 8.80376 4.73401 9.3783 4.96898C9.48436 5.01263 9.60626 4.988 9.68707 4.90666L11.8202 2.77637C12.4843 2.11223 13.5611 2.11223 14.2253 2.77637C14.8894 3.44051 14.8894 4.5173 14.2253 5.18144L11.5681 7.83578L11.5454 7.86128L10.6162 8.78479C9.95261 9.44757 8.87759 9.44757 8.21398 8.78479C7.76674 8.36388 7.06914 8.36388 6.62194 8.78479C6.4283 8.97883 6.31155 9.23647 6.29332 9.50998C6.27261 9.83449 6.39228 10.1523 6.62194 10.3825C6.94983 10.7118 7.33345 10.9803 7.75506 11.1757C7.81455 11.204 7.87404 11.2267 7.93353 11.2522C7.99302 11.2777 8.05533 11.2975 8.11482 11.3202C8.17431 11.3428 8.23662 11.3626 8.29611 11.3796L8.46325 11.425C8.57656 11.4533 8.68989 11.476 8.80601 11.4958C8.94591 11.5166 9.0868 11.5298 9.22812 11.5354H9.4264H9.4434L9.61337 11.5156C9.67568 11.5128 9.74085 11.4986 9.81451 11.4986H9.91082L10.1063 11.4703L10.1969 11.4533L10.3612 11.4193H10.3924C11.0883 11.2445 11.7236 10.8842 12.2309 10.3768L15.8371 6.77065C17.3861 5.22177 17.3861 2.71054 15.8372 1.16166Z" fill="#6D7278"/>
</g>
<defs>
<clipPath id="clip0">
<rect width="17" height="17" fill="white"/>
</clipPath>
</defs>
</svg>
