<svg width="641" height="415" viewBox="0 0 641 415" fill="none" xmlns="http://www.w3.org/2000/svg">
<g clip-path="url(#clip0)">
<path d="M288.951 81.6718C221.488 120.622 198.392 206.818 237.342 274.281C276.292 341.745 362.488 364.841 429.951 325.891C497.415 286.941 520.511 200.745 481.561 133.281C442.611 65.818 356.328 42.7718 288.951 81.6718ZM421.101 310.562C362.125 344.612 286.807 324.358 252.807 265.468C218.807 206.578 238.875 131.137 297.851 97.087C356.828 63.037 432.146 83.2916 466.146 142.181C500.146 201.071 480.078 276.512 421.101 310.562Z" fill="#0F1D2F"/>
<g style="mix-blend-mode:overlay" opacity="0.3">
<circle cx="353" cy="192.695" r="141" fill="#F0FBFF"/>
</g>
<g style="mix-blend-mode:lighten" opacity="0.9">
<path d="M321.701 180.181L281.419 194.879L321.701 209.576V224.818L264 203.044V187.258L321.701 165.484V180.181Z" fill="#FFFBFB"/>
<path d="M365.246 135H382.121L342.383 248.77H325.508L365.246 135Z" fill="#FFFBFB"/>
<path d="M442.001 186.714V202.5L384.299 224.274V209.032L424.581 194.335L384.299 179.637V164.395L442.001 186.714Z" fill="#FFFBFB"/>
</g>
<path d="M282.5 70.5C215.037 109.45 191.941 195.646 230.891 263.11C269.841 330.573 356.037 353.669 423.5 314.719C490.964 275.769 514.06 189.573 475.11 122.11C436.16 54.6462 349.877 31.6 282.5 70.5ZM414.6 299.304C355.624 333.354 280.306 313.099 246.306 254.21C212.306 195.32 232.374 119.879 291.35 85.8287C350.327 51.7786 425.645 72.0332 459.695 131.01C493.745 189.986 473.577 265.254 414.6 299.304Z" fill="#42D0FE"/>
<path d="M448.842 331.612L425.459 345.112C421.389 347.462 416.198 346.071 413.848 342L406.748 329.703L444.853 307.703L451.953 320C454.303 324.071 452.912 329.262 448.842 331.612Z" fill="#0F1D2F"/>
<path d="M448.929 331.562L425.373 345.162L443.723 376.945L467.279 363.345L448.929 331.562Z" fill="#0F1D2F"/>
<path d="M473.203 356.807L435.098 378.807L478.448 453.891L516.553 431.891L473.203 356.807Z" fill="#0F1D2F"/>
<path d="M473.202 356.807L435.097 378.807L438.972 368.718L462.528 355.118L473.202 356.807Z" fill="#42D0FE"/>
<path d="M483.73 450.841L481.825 451.941L441.025 381.273C440.725 380.754 440.908 380.071 441.427 379.771C441.947 379.471 442.63 379.654 442.93 380.173L483.73 450.841Z" fill="#42D0FE"/>
<path d="M487.974 448.391L486.069 449.491L445.269 378.823C444.969 378.304 445.152 377.621 445.671 377.321C446.191 377.021 446.874 377.204 447.174 377.723L487.974 448.391Z" fill="#42D0FE"/>
<path d="M492.13 445.991L490.225 447.091L449.425 376.423C449.125 375.904 449.308 375.221 449.828 374.921C450.347 374.621 451.03 374.804 451.33 375.323L492.13 445.991Z" fill="#42D0FE"/>
<path d="M496.374 443.541L494.469 444.641L453.669 373.973C453.369 373.454 453.552 372.771 454.072 372.471C454.591 372.171 455.274 372.354 455.574 372.873L496.374 443.541Z" fill="#42D0FE"/>
<path d="M500.531 441.141L498.625 442.241L457.825 371.573C457.525 371.054 457.708 370.371 458.228 370.071C458.748 369.771 459.431 369.954 459.731 370.473L500.531 441.141Z" fill="#42D0FE"/>
<path d="M504.775 438.691L502.87 439.791L462.07 369.123C461.77 368.604 461.953 367.921 462.472 367.621C462.992 367.321 463.675 367.504 463.975 368.023L504.775 438.691Z" fill="#42D0FE"/>
<path d="M508.931 436.291L507.026 437.391L466.226 366.723C465.926 366.204 466.109 365.521 466.628 365.221C467.148 364.921 467.831 365.104 468.131 365.623L508.931 436.291Z" fill="#42D0FE"/>
<path d="M513.175 433.841L511.27 434.941L470.47 364.273C470.17 363.754 470.353 363.071 470.873 362.771C471.392 362.471 472.075 362.654 472.375 363.173L513.175 433.841Z" fill="#42D0FE"/>
<g opacity="0.3" clip-path="url(#clip1)">
<path d="M390.703 284.297L390.703 276.703L398.297 276.703C398.685 276.703 399 276.388 399 276C399 275.612 398.685 275.297 398.297 275.297L390.703 275.297L390.703 267.703C390.703 267.315 390.388 267 390 267C389.612 267 389.297 267.315 389.297 267.703L389.297 275.297L381.703 275.297C381.315 275.297 381 275.612 381 276C381 276.388 381.315 276.703 381.703 276.703L389.297 276.703L389.297 284.297C389.297 284.685 389.612 285 390 285C390.388 285 390.703 284.685 390.703 284.297Z" fill="white"/>
</g>
</g>
<g opacity="0.3" clip-path="url(#clip2)">
<path d="M255.703 28.2969L255.703 20.7031L263.297 20.7031C263.685 20.7031 264 20.3883 264 20C264 19.6117 263.685 19.2969 263.297 19.2969L255.703 19.2969L255.703 11.7031C255.703 11.3148 255.388 11 255 11C254.612 11 254.297 11.3148 254.297 11.7031L254.297 19.2969L246.703 19.2969C246.315 19.2969 246 19.6117 246 20C246 20.3883 246.315 20.7031 246.703 20.7031L254.297 20.7031L254.297 28.2969C254.297 28.6852 254.612 29 255 29C255.388 29 255.703 28.6852 255.703 28.2969Z" fill="white"/>
</g>
<g opacity="0.6">
<path d="M187.133 51H128.597C125.369 51 122.729 53.636 122.729 56.8577V83.8033C122.729 87.0251 125.369 89.6611 128.597 89.6611H179.651L185.959 103.134V89.6611H186.986C190.214 89.6611 192.854 87.0251 192.854 83.8033V56.8577C193.001 53.636 190.36 51 187.133 51Z" fill="#76C7F0"/>
<path d="M100.868 68.7197H159.404C162.632 68.7197 165.272 71.3556 165.272 74.5774V101.523C165.272 104.745 162.632 107.381 159.404 107.381H108.35L102.042 120.854V107.381H100.868C97.6407 107.381 95 104.745 95 101.523V74.5774C95 71.3556 97.6407 68.7197 100.868 68.7197Z" fill="#0CB2E7"/>
</g>
<g opacity="0.6">
<path d="M581.062 309.701L579.969 303.368L573.625 304.678C572.531 301.839 571 299.218 568.812 297.034L572.531 291.793L567.281 288.08L563.562 293.322C560.938 292.011 557.875 291.356 554.812 291.356L553.938 285.023L547.594 286.115L548.688 292.448C545.844 293.54 543.219 295.069 541.031 297.253L535.781 293.54L532.062 298.782L537.312 302.494C536 305.115 535.344 308.172 535.344 311.23L529 312.103L530.094 318.437L536.438 317.345C537.531 320.184 539.062 322.805 541.25 324.988L537.531 330.23L542.781 333.942L546.5 328.701C549.125 330.011 552.188 330.667 555.25 330.667L556.344 337L562.688 335.908L561.594 329.575C564.438 328.483 567.062 326.954 569.25 324.77L574.5 328.483L578.219 323.241L572.75 319.529C574.062 316.908 574.719 313.851 574.719 310.793L581.062 309.701ZM556.125 316.69C552.844 317.345 549.781 315.161 549.344 311.885C548.688 308.609 550.875 305.552 554.156 305.115C557.438 304.46 560.5 306.644 560.938 309.92C561.375 313.195 559.188 316.253 556.125 316.69Z" fill="#0CB2E7"/>
<path d="M641 297.034V289.172H633.125C632.469 285.46 631.156 281.966 628.969 278.908L634.656 273.23L628.969 267.552L623.062 273.23C620 271.046 616.5 269.517 612.781 268.862V261H604.906V268.862C601.188 269.517 597.687 271.046 594.625 273.23L588.937 267.552L583.25 273.23L588.937 278.908C586.75 281.966 585.219 285.46 584.562 289.172H576.469V297.034H584.344C585 300.747 586.312 304.241 588.5 307.299L582.812 312.977L588.5 318.655L594.187 312.977C597.25 315.161 600.75 316.69 604.469 317.345V325.425H612.344V317.563C616.062 316.908 619.562 315.598 622.625 313.414L628.312 319.092L634 313.414L628.312 307.736C630.5 304.678 632.031 301.184 632.688 297.471H641V297.034ZM608.844 300.31C604.687 300.31 601.406 297.034 601.406 292.885C601.406 288.736 604.687 285.46 608.844 285.46C613 285.46 616.281 288.736 616.281 292.885C616.062 297.034 612.781 300.31 608.844 300.31Z" fill="#76C7F0"/>
</g>
<g opacity="0.6" clip-path="url(#clip3)">
<path d="M170.263 354.941L134.736 332.327L170.263 309.843L172.368 313.242L142.236 332.327L172.368 351.673L170.263 354.941Z" fill="#0F1D2F"/>
<path d="M162.631 310.627C162.631 315.464 166.578 319.255 171.315 319.255C176.183 319.255 179.999 315.333 179.999 310.627C179.999 305.922 176.183 302 171.315 302C166.447 302 162.631 305.922 162.631 310.627Z" fill="#0CB2E7"/>
<path d="M130 331.543C130 337.163 134.605 341.739 140.263 341.739C145.921 341.739 150.526 337.163 150.526 331.543C150.526 325.922 145.921 321.346 140.263 321.346C134.605 321.346 130 326.052 130 331.543Z" fill="#0CB2E7"/>
<path d="M171.315 362C176.111 362 179.999 358.137 179.999 353.373C179.999 348.608 176.111 344.745 171.315 344.745C166.519 344.745 162.631 348.608 162.631 353.373C162.631 358.137 166.519 362 171.315 362Z" fill="#0CB2E7"/>
</g>
<g opacity="0.3" clip-path="url(#clip4)">
<path d="M135.703 221.297L135.703 213.703L143.297 213.703C143.685 213.703 144 213.388 144 213C144 212.612 143.685 212.297 143.297 212.297L135.703 212.297L135.703 204.703C135.703 204.315 135.388 204 135 204C134.612 204 134.297 204.315 134.297 204.703L134.297 212.297L126.703 212.297C126.315 212.297 126 212.612 126 213C126 213.388 126.315 213.703 126.703 213.703L134.297 213.703L134.297 221.297C134.297 221.685 134.612 222 135 222C135.388 222 135.703 221.685 135.703 221.297Z" fill="white"/>
</g>
<g opacity="0.3" clip-path="url(#clip5)">
<path d="M284.703 394.297L284.703 386.703L292.297 386.703C292.685 386.703 293 386.388 293 386C293 385.612 292.685 385.297 292.297 385.297L284.703 385.297L284.703 377.703C284.703 377.315 284.388 377 284 377C283.612 377 283.297 377.315 283.297 377.703L283.297 385.297L275.703 385.297C275.315 385.297 275 385.612 275 386C275 386.388 275.315 386.703 275.703 386.703L283.297 386.703L283.297 394.297C283.297 394.685 283.612 395 284 395C284.388 395 284.703 394.685 284.703 394.297Z" fill="white"/>
</g>
<g opacity="0.3" clip-path="url(#clip6)">
<path d="M600.703 191.297L600.703 183.703L608.297 183.703C608.685 183.703 609 183.388 609 183C609 182.612 608.685 182.297 608.297 182.297L600.703 182.297L600.703 174.703C600.703 174.315 600.388 174 600 174C599.612 174 599.297 174.315 599.297 174.703L599.297 182.297L591.703 182.297C591.315 182.297 591 182.612 591 183C591 183.388 591.315 183.703 591.703 183.703L599.297 183.703L599.297 191.297C599.297 191.685 599.612 192 600 192C600.388 192 600.703 191.685 600.703 191.297Z" fill="white"/>
</g>
<g opacity="0.3" clip-path="url(#clip7)">
<path d="M480.703 28.2969L480.703 20.7031L488.297 20.7031C488.685 20.7031 489 20.3883 489 20C489 19.6117 488.685 19.2969 488.297 19.2969L480.703 19.2969L480.703 11.7031C480.703 11.3148 480.388 11 480 11C479.612 11 479.297 11.3148 479.297 11.7031L479.297 19.2969L471.703 19.2969C471.315 19.2969 471 19.6117 471 20C471 20.3883 471.315 20.7031 471.703 20.7031L479.297 20.7031L479.297 28.2969C479.297 28.6852 479.612 29 480 29C480.388 29 480.703 28.6852 480.703 28.2969Z" fill="white"/>
</g>
<g opacity="0.3" clip-path="url(#clip8)">
<path d="M10.4316 103.025L10.4316 95.431L18.0254 95.431C18.4137 95.431 18.7285 95.1162 18.7285 94.7279C18.7285 94.3396 18.4137 94.0248 18.0254 94.0248L10.4316 94.0248L10.4316 86.431C10.4316 86.0427 10.1169 85.7279 9.72852 85.7279C9.34018 85.7279 9.02539 86.0427 9.02539 86.431L9.02539 94.0248L1.43164 94.0248C1.0433 94.0248 0.728515 94.3396 0.728515 94.7279C0.728515 95.1162 1.0433 95.431 1.43164 95.431L9.02539 95.431L9.02539 103.025C9.02539 103.413 9.34018 103.728 9.72851 103.728C10.1169 103.728 10.4316 103.413 10.4316 103.025Z" fill="white"/>
</g>
<g opacity="0.3">
<path d="M43.2969 357.297H35.7031V349.703C35.7031 349.315 35.3883 349 35 349C34.6117 349 34.2969 349.315 34.2969 349.703V357.297H26.7031C26.3148 357.297 26 357.612 26 358C26 358.388 26.3148 358.703 26.7031 358.703H34.2969V366.297C34.2969 366.685 34.6117 367 35 367C35.3883 367 35.7031 366.685 35.7031 366.297V358.703H43.2969C43.6852 358.703 44 358.388 44 358C44 357.612 43.6852 357.297 43.2969 357.297Z" fill="white"/>
</g>
<g opacity="0.6" clip-path="url(#clip9)">
<path d="M601.181 49.2728H591.896V107.818H601.181V49.2728Z" fill="white"/>
<path d="M554.759 73.6364H545.475V108H554.759V73.6364Z" fill="#0F1D2F"/>
<path d="M585.708 57.2728H576.424V108H585.708V57.2728Z" fill="#0CB2E7"/>
<path d="M570.234 64.5455H560.949V108H570.234V64.5455Z" fill="#0786B3"/>
<path d="M539.285 80.1819H530V107.818H539.285V80.1819Z" fill="#ABDFF9"/>
<path d="M531.638 72.5455C531.274 72.5455 530.727 72.3637 530.545 72.0001C530.181 71.4546 530.363 70.7273 531.091 70.3637L586.435 39.8182C586.981 39.4546 587.709 39.6364 588.074 40.3637C588.438 40.9091 588.256 41.6364 587.527 42.0001L532.366 72.5455C532.184 72.5455 532.002 72.5455 531.638 72.5455Z" fill="white"/>
<path d="M585.89 48.9091L589.713 39.0909L579.154 38L585.89 48.9091Z" fill="white"/>
</g>
<defs>
<clipPath id="clip0">
<rect width="282" height="430" fill="white" transform="translate(160.391 141) rotate(-30)"/>
</clipPath>
<clipPath id="clip1">
<rect width="18" height="18" fill="white" transform="translate(399 267) rotate(90)"/>
</clipPath>
<clipPath id="clip2">
<rect width="18" height="18" fill="white" transform="translate(264 11) rotate(90)"/>
</clipPath>
<clipPath id="clip3">
<rect width="50" height="60" fill="white" transform="translate(130 302)"/>
</clipPath>
<clipPath id="clip4">
<rect width="18" height="18" fill="white" transform="translate(144 204) rotate(90)"/>
</clipPath>
<clipPath id="clip5">
<rect width="18" height="18" fill="white" transform="translate(293 377) rotate(90)"/>
</clipPath>
<clipPath id="clip6">
<rect width="18" height="18" fill="white" transform="translate(609 174) rotate(90)"/>
</clipPath>
<clipPath id="clip7">
<rect width="18" height="18" fill="white" transform="translate(489 11) rotate(90)"/>
</clipPath>
<clipPath id="clip8">
<rect width="18" height="18" fill="white" transform="translate(18.7285 85.7279) rotate(90)"/>
</clipPath>
<clipPath id="clip9">
<rect width="71" height="70" fill="white" transform="translate(530 38)"/>
</clipPath>
</defs>
</svg>
