<svg width="80" height="80" viewBox="0 0 80 80" fill="none" xmlns="http://www.w3.org/2000/svg">
<path d="M80 0H0V80H80V0Z" fill="#12100E"/>
<path d="M19.0917 26.7551C19.1585 26.0954 18.9069 25.4433 18.4143 24.9993L13.3962 18.9542V18.0512H28.9774L41.0207 44.4639L51.6089 18.0512H66.4624V18.9542L62.1719 23.0679C61.802 23.3498 61.6186 23.8132 61.6952 24.2719V54.4972C61.6186 54.9559 61.802 55.4193 62.1719 55.7012L66.362 59.8149V60.7179H45.2861V59.8149L49.6267 55.6009C50.0533 55.1745 50.0533 55.0491 50.0533 54.3969V29.9658L37.9848 60.6175H36.3539L22.3033 29.9658V50.509C22.1862 51.3727 22.473 52.2422 23.0811 52.8668L28.7264 59.7146V60.6175H12.7188V59.7146L18.3641 52.8668C18.9678 52.2412 19.2379 51.3659 19.0917 50.509V26.7551Z" fill="white"/>
</svg>
