<svg width="19" height="18" viewBox="0 0 19 18" fill="none" xmlns="http://www.w3.org/2000/svg">
<path fill-rule="evenodd" clip-rule="evenodd" d="M7.31536 13.5053C3.89627 13.5053 1.12544 10.7311 1.12544 7.31536C1.12544 3.89402 3.89627 1.12544 7.31536 1.12544C10.7339 1.12544 13.5053 3.89402 13.5053 7.31536C13.5053 10.7311 10.7339 13.5053 7.31536 13.5053ZM17.8461 17.0898L12.8486 12.0872C13.956 10.8098 14.6307 9.1442 14.6307 7.31536C14.6307 3.27503 11.3551 0 7.31536 0C3.27503 0 0 3.27503 0 7.31536C0 11.3557 3.27503 14.6307 7.31536 14.6307C9.14251 14.6307 10.8087 13.9555 12.0912 12.8469L17.0887 17.8438C17.298 18.0521 17.6368 18.0521 17.8461 17.8438C18.0549 17.6356 18.0549 17.298 17.8461 17.0898Z" fill="#373B39"/>
</svg>
