<svg width="148" height="30" viewBox="0 0 148 30" fill="none" xmlns="http://www.w3.org/2000/svg">
<path d="M46.4711 2.77985H2.5957V27.6666H46.1742L55.8318 15.2232L46.4711 2.77985Z" stroke="#CC1F44" stroke-width="3.6" stroke-miterlimit="10"/>
<path d="M68.3432 27.6666H145.784V2.77985H68.6401L58.9824 15.2232L68.3432 27.6666Z" stroke="#074C69" stroke-width="3.6" stroke-miterlimit="10"/>
<path d="M12.7263 11.2606C13.4911 11.2606 14.5439 11.4384 15.2489 12.2294C16.0137 13.0999 16.1626 14.2174 16.1626 14.9193C16.1626 15.9578 15.8449 17.0651 15.2587 17.7181C14.4642 18.6084 13.3019 18.7368 12.7059 18.7368C11.7625 18.7368 10.8187 18.4403 10.1633 17.7578C9.37855 16.9271 9.2793 15.7403 9.2793 15.0874C9.2793 13.189 10.1438 11.2606 12.7263 11.2606ZM11.4249 17.0356C11.6433 17.3325 12.0106 17.6091 12.7263 17.6091C13.352 17.6091 13.7791 17.3921 14.0671 16.9469C14.3055 16.5904 14.5537 16.0372 14.5537 14.8994C14.5537 14.5535 14.524 14.059 14.3751 13.6235C14.0773 12.7438 13.4712 12.3578 12.736 12.3578C12.16 12.3578 11.7031 12.5951 11.4151 12.9613C11.0079 13.4554 10.8887 14.2271 10.8887 15.0379C10.8887 15.7204 10.9977 16.4819 11.4249 17.0356Z" fill="#CC1F44"/>
<path d="M19 11.4287H21.2151C22.248 11.4287 23.1121 11.4975 23.7081 12.21C24.0856 12.6649 24.145 13.1793 24.145 13.545C24.145 14.3757 23.7976 15.0777 23.2313 15.4438C22.7049 15.78 21.9799 15.78 21.6024 15.78H20.5593V18.559H19V11.4287ZM20.5199 14.6426H21.1358C21.6325 14.6426 22.556 14.6427 22.556 13.5547C22.556 12.5854 21.7318 12.5854 21.2944 12.5854H20.5199V14.6426Z" fill="#CC1F44"/>
<path d="M26.9238 11.4088H31.7312V12.5757H28.4632V14.2765H31.5225V15.4438H28.4632V17.3722H31.8402V18.5585H26.9238V11.4088Z" fill="#CC1F44"/>
<path d="M34.7383 11.4088H36.9632L39.6551 17.0356V11.4088H41.0854V18.5585H38.97L36.189 12.6251V18.5585H34.7387V11.4088H34.7383Z" fill="#CC1F44"/>
<path d="M73.369 16.2745C73.369 16.6107 73.349 17.629 74.6704 17.629C75.5048 17.629 76.0307 17.2337 76.0307 16.6301C76.0307 15.997 75.5841 15.8885 74.6704 15.671C72.9622 15.2457 72.0285 14.7415 72.0285 13.5053C72.0285 12.3287 72.8727 11.2901 74.8693 11.2901C75.6142 11.2901 76.4982 11.4587 77.0344 12.1306C77.4421 12.645 77.4421 13.2185 77.4421 13.4559H75.9621C75.9421 13.2084 75.8624 12.3679 74.7998 12.3679C74.0846 12.3679 73.618 12.754 73.618 13.3372C73.618 13.9998 74.1444 14.1185 75.1773 14.3757C76.4194 14.6722 77.641 15.0088 77.641 16.4029C77.641 17.6885 76.5682 18.727 74.5818 18.727C71.8305 18.727 71.811 16.9672 71.8008 16.2745H73.369Z" fill="#074C69"/>
<path d="M83.8649 11.4088L86.3579 18.5585H84.8083L84.2921 17.0157H81.4513L80.9151 18.5585H79.4453L82.0375 11.4088H83.8649ZM83.9048 15.859L82.9114 12.8131L81.8488 15.859H83.9048Z" fill="#074C69"/>
<path d="M88.5996 11.4088H90.8245L93.5164 17.0356V11.4088H94.9464V18.5585H92.8314L90.0504 12.6251V18.5585H88.6005V11.4088H88.5996Z" fill="#074C69"/>
<path d="M101.656 11.4286L104.03 11.4384C104.427 11.4384 105.639 11.4481 106.503 12.0811C107.407 12.7438 107.725 13.871 107.725 14.8892C107.725 17.085 106.543 18.232 105.183 18.4791C104.914 18.5285 104.616 18.5585 103.891 18.5585H101.656V11.4286ZM103.216 17.3819C103.385 17.3916 103.643 17.4013 103.821 17.4013C104.477 17.4013 105.043 17.3523 105.491 16.9072C106.096 16.3041 106.136 15.236 106.136 14.8897C106.136 13.8811 105.789 12.9516 104.825 12.6847C104.507 12.5956 104.1 12.5461 103.216 12.5854V17.3819Z" fill="#074C69"/>
<path d="M110.096 11.3889H111.636V18.5585H110.096V11.3889Z" fill="#074C69"/>
<path d="M114.315 11.4088H119.123V12.5757H115.855V14.2765H118.915V15.4438H115.855V17.3722H119.232V18.5585H114.315V11.4088Z" fill="#074C69"/>
<path d="M126.47 13.6041C126.461 13.4162 126.45 13.1594 126.272 12.8823C125.974 12.4076 125.408 12.3287 125.07 12.3287C123.322 12.3287 122.975 13.9504 122.975 15.0481C122.975 15.5325 123.044 16.4025 123.571 16.9668C123.928 17.362 124.405 17.58 125.259 17.58C126.005 17.58 126.262 17.4909 126.431 17.4415V15.9384H125.041V14.752H127.971V18.322C127.524 18.4703 126.789 18.7173 125.349 18.7173C123.71 18.7173 122.866 18.3221 122.299 17.7684C121.495 16.9871 121.346 15.8497 121.346 15.0979C121.346 12.5665 122.935 11.2116 125.11 11.2116C126.034 11.2116 126.987 11.4688 127.554 12.1116C128.031 12.6551 128.061 13.219 128.07 13.6045H126.47V13.6041Z" fill="#074C69"/>
<path d="M133.877 11.2606C134.642 11.2606 135.695 11.4384 136.4 12.2294C137.165 13.0999 137.314 14.2174 137.314 14.9193C137.314 15.9578 136.996 17.0651 136.41 17.7181C135.616 18.6084 134.453 18.7368 133.857 18.7368C132.913 18.7368 131.97 18.4403 131.315 17.7578C130.53 16.9271 130.431 15.7403 130.431 15.0874C130.431 13.189 131.295 11.2606 133.877 11.2606ZM132.576 17.0356C132.794 17.3325 133.162 17.6091 133.877 17.6091C134.503 17.6091 134.93 17.3921 135.218 16.9469C135.456 16.5904 135.705 16.0372 135.705 14.8994C135.705 14.5535 135.675 14.059 135.526 13.6235C135.228 12.7438 134.622 12.3578 133.887 12.3578C133.311 12.3578 132.854 12.5951 132.566 12.9613C132.159 13.4554 132.04 14.2271 132.04 15.0379C132.039 15.7204 132.149 16.4819 132.576 17.0356Z" fill="#074C69"/>
</svg>
