<svg width="96" height="96" viewBox="0 0 96 96" fill="none" xmlns="http://www.w3.org/2000/svg">
<path fill-rule="evenodd" clip-rule="evenodd" d="M96 48.2919C96 21.6231 74.5076 0 48 0C21.4924 0 0 21.6231 0 48.2919C0 72.3936 17.5504 92.3731 40.5007 96V62.2546H28.3099V48.2919H40.5007V37.65C40.5007 25.5481 47.6693 18.8588 58.6314 18.8588C63.8829 18.8588 69.3776 19.8028 69.3776 19.8028V31.6875H63.3226C57.3624 31.6875 55.4993 35.409 55.4993 39.2323V48.2915H68.8103L66.6839 62.2542H55.4989V95.9996C78.4492 92.3794 95.9996 72.3999 95.9996 48.2915L96 48.2919Z" fill="#FEFEFE"/>
</svg>
