<svg width="31" height="25" viewBox="0 0 31 25" fill="none" xmlns="http://www.w3.org/2000/svg">
<path fill-rule="evenodd" clip-rule="evenodd" d="M9.74922 25C21.4479 25 27.8452 15.3828 27.8452 7.04345C27.8452 6.76998 27.8397 6.49788 27.827 6.22755C29.0687 5.33671 30.1483 4.22503 31 2.95972C29.8603 3.46207 28.6339 3.80053 27.3476 3.95324C28.6605 3.17197 29.6687 1.93586 30.144 0.462049C28.915 1.18493 27.5543 1.71073 26.1056 1.99394C24.9452 0.767247 23.2922 0 21.4632 0C17.9506 0 15.102 2.82639 15.102 6.31076C15.102 6.80599 15.1579 7.28773 15.2672 7.74971C9.98134 7.48596 5.29395 4.9745 2.1576 1.15574C1.61073 2.08834 1.29621 3.17197 1.29621 4.32801C1.29621 6.51757 2.41906 8.45037 4.12639 9.5812C3.0833 9.5494 2.10308 9.26481 1.24602 8.79165C1.24455 8.81794 1.24455 8.84452 1.24455 8.87226C1.24455 11.929 3.43705 14.4808 6.34707 15.0595C5.81287 15.2037 5.25071 15.2815 4.6704 15.2815C4.26067 15.2815 3.8623 15.2412 3.47481 15.1676C4.28438 17.6751 6.63225 19.4997 9.41656 19.5511C7.23911 21.2438 4.49712 22.2525 1.51729 22.2525C1.00386 22.2525 0.497835 22.2234 0 22.1653C2.81489 23.9553 6.1568 25 9.74922 25Z" fill="white"/>
</svg>
