<svg width="96" height="78" viewBox="0 0 96 78" fill="none" xmlns="http://www.w3.org/2000/svg">
<path fill-rule="evenodd" clip-rule="evenodd" d="M30.1911 78C66.4194 78 86.2303 47.9943 86.2303 21.9756C86.2303 21.1223 86.2133 20.2734 86.1741 19.43C90.0193 16.6505 93.3626 13.1821 96 9.23433C92.4706 10.8017 88.6728 11.8576 84.6893 12.3341C88.755 9.89655 91.8771 6.03987 93.3492 1.44159C89.5432 3.69698 85.3295 5.33748 80.8431 6.22108C77.2497 2.39381 72.1306 0 66.4667 0C55.5891 0 46.7675 8.81834 46.7675 19.6896C46.7675 21.2347 46.9406 22.7377 47.279 24.1791C30.91 23.3562 16.3942 15.5204 6.68159 3.6059C4.98805 6.51562 4.01407 9.89655 4.01407 13.5034C4.01407 20.3348 7.49129 26.3651 12.7785 29.8933C9.5483 29.7941 6.51276 28.9062 3.85863 27.43C3.85409 27.512 3.85409 27.5949 3.85409 27.6815C3.85409 37.2184 10.6438 45.18 19.6555 46.9857C18.0011 47.4356 16.2603 47.6782 14.4632 47.6782C13.1943 47.6782 11.9607 47.5525 10.7607 47.323C13.2678 55.1463 20.5386 60.8391 29.1609 60.9995C22.4179 66.2808 13.9266 69.4279 4.6987 69.4279C3.10872 69.4279 1.54168 69.3371 0 69.1556C8.71708 74.7405 19.0662 78 30.1911 78Z" fill="#FEFEFE"/>
</svg>
